<?xml version="1.0" encoding="iso-8859-1"?>
<!-- Generator: Adobe Illustrator 19.2.1, SVG Export Plug-In . SVG Version: 6.00 Build 0)  -->
<svg version="1.1" id="Layer_1" xmlns="http://www.w3.org/2000/svg" xmlns:xlink="http://www.w3.org/1999/xlink" x="0px" y="0px"
	 viewBox="0 0 393.229 290.34" style="enable-background:new 0 0 393.229 290.34;" xml:space="preserve">
<path style="fill:#1E4587;" d="M328.085,175.536h-14.727l2.432-9.739h-29.506l-2.426,9.739h-14.257v-2
	c0.22-1.098,0.41-2.248,0.685-3.479c2.594-10.501,9.488-20.878,21.414-20.878c4.719,0,9.408,1.799,8.766,8.326h17.555
	c0.691-3.046,1.853-8.234-1.459-13.003c-3.743-5.183-11.28-7.263-21.055-7.263c-6.953,0-17.121,1.113-25.906,6.847V91.118h58.484
	V175.536 M293.575,189.803c-3.338,0.604-6.666,1.006-9.834,1.006c-8.431,0-14.295-3.918-14.418-13.059h27.24L293.575,189.803z
	 M259.874,141.583l-0.029,12.099c-4.076,5.632-6.607,11.781-7.79,16.735c-0.448,1.734-0.762,3.417-0.932,5.119h-8.591l7.345-34.854
	l-24.721-0.023l-22.126,34.877h-1.611V91.118h58.455V141.583z M227.23,175.536h-8.793l13.311-20.944L227.23,175.536z M191.739,140.6
	h-14.63l-10.036,34.936H151.56c7.905-2.924,12.715-8.508,14.203-16.794c1.226-6.439,0.643-10.676-1.982-13.847
	c-3.935-4.721-11.833-4.316-18.85-4.316c-1.226,0-11.604,0.021-11.604,0.021V91.118h58.412V140.6z M182.383,175.536l6.156-21.854
	l0.217,21.854H182.383z M139.84,167.227h-0.018c-0.566,0.029-1.136,0.078-1.789,0.078c-0.853,0-1.519,0.031-2.148,0.031
	l-3.741-0.031l1.73-6.395l0.818-3.176l1.963-7.44c0.869,0,1.722-0.031,2.536-0.031c0.961,0,1.959,0,2.897,0
	c4.943,0,8.071,0.281,9.208,1.871c0.873,1.193,0.76,3.257-0.27,6.395C149.263,163.934,147.031,166.678,139.84,167.227
	 M123.592,143.697l-0.915,3.034l-8.363,27.826l-0.33,0.979H86.461l-2.147-4.534l29.67-30.32H94.921L71.72,165.674l7.515-24.992
	H65.179V91.118h58.413V143.697z M267.382,88.874v56.806c-1.985,1.567-3.672,3.245-5.244,5.054v-61.86h-62.924V140.6h-5.213V88.874
	h-62.935v51.808h-5.206V88.874H62.924v59.049l-16.055,53.538H60.99l7.094-23.711h2.04l11.712,23.711H98.9L87.536,177.75h25.786
	l-7.155,23.711h15.434l7.059-23.644h3.388v-0.067h34.358l-6.814,23.641h15.559l6.603-23.641h7.002l0.187,23.641h13.054
	l14.981-23.641h9.809l-5.059,23.641h15.32l4.969-23.641h8.86c-0.352,7.329,1.521,13.985,6.382,18.467
	c5.935,5.455,15.051,6.498,21.799,6.498c9.23,0,18.812-1.324,28.453-3.498l5.308-21.467h17.487V88.874H267.382z"/>
</svg>
