<?xml version="1.0" standalone="no"?>
<!DOCTYPE svg PUBLIC "-//W3C//DTD SVG 1.1//EN" "http://www.w3.org/Graphics/SVG/1.1/DTD/svg11.dtd" >
<svg xmlns="http://www.w3.org/2000/svg">
<metadata>Generated by IcoMoon</metadata>
<defs>
<font id="kpmg-icons" horiz-adv-x="1024">
<font-face units-per-em="1024" ascent="960" descent="-64" />
<missing-glyph horiz-adv-x="1024" />
<glyph unicode="&#x20;" horiz-adv-x="512" d="" />
<glyph unicode="&#xe900;" glyph-name="advice" d="M449.568 464h-145.568l-64-64v64h-96c-17.664 0-32 14.336-32 32v272c0 17.68 14.336 32 32 32h448c17.664 0 32-14.336 32-32v-81.568c7.888 0.944 15.872 1.568 24 1.568 8.144 0 16.112-0.624 24-1.568v81.568c0 44.176-35.808 80-80 80h-448c-44.176 0-80-35.824-80-80v-272c0-44.176 35.824-80 80-80h48v-128l128 128h141.584c-5.888 15.2-10 31.264-12.016 48zM816 488c0-92.784-75.216-168-168-168s-168 75.216-168 168c0 92.784 75.216 168 168 168s168-75.216 168-168zM784 288h-256c-97.2 0-176-78.8-176-176v-64h608v64c0 97.2-78.8 176-176 176z" />
<glyph unicode="&#xe901;" glyph-name="alert" d="M511.936 849.616l-447.936-769.408 0.336-0.208h895.664l-448.064 769.616zM511.936 722.416l336.752-578.416h-673.488l336.736 578.416zM464 256h96v-80h-96v80zM464 576h96v-272h-96v272z" />
<glyph unicode="&#xe902;" glyph-name="ambulance" d="M320 304c-61.856 0-112-50.144-112-112s50.144-112 112-112c61.856 0 112 50.144 112 112s-50.144 112-112 112zM320 144c-26.512 0-48 21.488-48 48s21.488 48 48 48c26.512 0 48-21.488 48-48s-21.488-48-48-48zM720 304c-61.856 0-112-50.144-112-112s50.144-112 112-112c61.856 0 112 50.144 112 112s-50.144 112-112 112zM720 144c-26.512 0-48 21.488-48 48s21.488 48 48 48c26.512 0 48-21.488 48-48s-21.488-48-48-48zM608 784c-35.344 0-64-28.656-64-64h128c0 35.344-28.656 64-64 64zM784 704h-720v-512h112c0 79.536 64.464 144 144 144s144-64.464 144-144h112c0 79.536 64.464 144 144 144s144-64.464 144-144h96v256l-176 256zM450.848 484.784l-24-41.568-74.848 43.216v-86.432h-48v86.432l-74.848-43.216-24 41.568 74.848 43.216-74.848 43.216 24 41.568 74.848-43.216v86.432h48v-86.432l74.848 43.216 24-41.568-74.848-43.216 74.848-43.216zM608 448v208h160l144-208h-304z" />
<glyph unicode="&#xe903;" glyph-name="appointment" d="M752 832v64h-96v-64h-288v64h-96v-64h-208v-832h896v832h-208zM912 48h-800v496h800v-496zM912 592h-800v192h160v-80h96v80h288v-80h96v80h160v-192zM256 195.664l85.040 79.2c15.36 13.92 31.712 29.28 49.488 50.88 18.72 22.56 22.576 33.12 22.576 48.48 0 25.44-15.104 42.736-40.080 42.736-38.384 0-41.984-32.96-42.464-48.96h-73.44c0 16 0 38.4 19.696 62.88 19.184 23.984 54.72 36.464 95.52 36.464 72.96 0 113.264-39.36 113.264-91.184 0-34.56-13.44-79.2-158.384-195.84 48.48 0.976 50.48 1.44 88.4 1.92 51.36 0.96 64.4 0.96 64.4 1.44v-55.68h-224.016v67.664zM602.72 208c-0.48 0 5.744-36.16 39.36-36.16 25.904 0 49.44 19.36 49.44 63.52 0 32.16-12.48 60.32-44.64 60.32s-40.336-25.76-42.72-33.456l-69.6 2.72 7.68 199.056h209.76v-64h-146.4l-4.336-79.12c10.56 9.104 26.4 25.952 63.36 25.952 53.76 0 98.88-38.384 98.88-105.584 0-57.104-33.6-120.944-119.52-120.944-35.024 0-70.544 8.096-93.6 35.44-16.784 20.16-18.224 36.256-18.72 52.256h71.056z" />
<glyph unicode="&#xe904;" glyph-name="chart" d="M128 144h768v-64h-768v64zM688 624h128v-448h-128v448zM448 512h128v-336h-128v336zM208 784h128v-608h-128v608z" />
<glyph unicode="&#xe905;" glyph-name="chart-down" d="M112 48v848h-48v-896h896v48zM192 480h96v-352h-96v352zM560 416h96v-288h-96v288zM736 304h96v-176h-96v176zM368 352h96v-224h-96v224zM603.328 581.136l197.328-155.024-29.536-37.584 142.128-20.368-53.408 133.28-29.536-37.584-217.632 171.008-194.080-64.704-214.688 122.688-23.808-41.696 233.312-133.312z" />
<glyph unicode="&#xe906;" glyph-name="chart-up" d="M112 48v848h-48v-896h896v48zM736 480h96v-352h-96v352zM368 416h96v-288h-96v288zM192 320h96v-192h-96v192zM560 352h96v-224h-96v224zM417.056 502.336l195.616-65.2 217.632 171.008 29.536-37.584 53.408 133.28-142.128-20.352 29.536-37.6-197.328-155.024-188.384 62.8-232.4-99.6 18.912-44.128z" />
<glyph unicode="&#xe907;" glyph-name="battery-empty" d="M720 848h-112c0 32-16 48-48 48h-96c-26.512 0-48-16-48-48h-112c-26.512 0-48-16-48-48v-752c0-26.512 21.488-48 48-48h416c32 0 48 21.488 48 48v752c0 32-16 48-48 48zM304 48v752h416v-752h-416z" />
<glyph unicode="&#xe908;" glyph-name="battery-full" d="M720 848h-112c0 32-16 48-48 48h-96c-26.512 0-48-16-48-48h-112c-26.512 0-48-16-48-48v-752c0-26.512 21.488-48 48-48h416c32 0 48 21.488 48 48v752c0 32-16 48-48 48zM304 48v752h416v-752h-416zM336 752h352v-128h-352v128zM336 576h352v-128h-352v128zM336 400h352v-128h-352v128zM336 224h352v-128h-352v128z" />
<glyph unicode="&#xe909;" glyph-name="battery-half" d="M720 848h-112c0 32-16 48-48 48h-96c-26.512 0-48-16-48-48h-112c-26.512 0-48-16-48-48v-752c0-26.512 21.488-48 48-48h416c32 0 48 21.488 48 48v752c0 32-16 48-48 48zM304 48v752h416v-752h-416zM336 400h352v-128h-352v128zM336 224h352v-128h-352v128z" />
<glyph unicode="&#xe90a;" glyph-name="battery-pack" d="M560 496l-124.736-96.592 76.736-31.408-80-96 160 96-80 32zM832 656h-640c-26.512 0-48-21.488-48-48v-432c0-26.512 21.488-48 48-48h640c26.512 0 48 21.488 48 48v432c0 26.512-21.488 48-48 48zM512 224c-88.368 0-160 71.632-160 160s71.632 160 160 160 160-71.632 160-160c0-88.368-71.632-160-160-160zM768 720c0 17.68-14.32 32-32 32h-64c-17.68 0-32-14.32-32-32v-32h128v32zM384 720c0 17.68-14.32 32-32 32h-64c-17.68 0-32-14.32-32-32v-32h128v32z" />
<glyph unicode="&#xe90b;" glyph-name="briefcase" d="M688 688v80c0 35.344-28.656 64-64 64h-224c-35.344 0-64-28.656-64-64v-80h-272v-624h64v-32h112v32h544v-32h112v32h64v624h-272zM160 640h48v-528h-48v528zM528 514.944v-66.944h-32v66.944c-18.608 6.608-32 24.192-32 45.056 0 26.512 21.488 48 48 48s48-21.488 48-48c0-20.864-13.408-38.448-32-45.056zM400 688v80h224v-80h-224zM816 640h48v-528h-48v528z" />
<glyph unicode="&#xe90c;" glyph-name="calendar-day" d="M752 832v64h-96v-64h-288v64h-96v-64h-208v-832h896v832h-208zM912 48h-800v496h800v-496zM912 592h-800v192h160v-80h96v80h288v-80h96v80h160v-192z" />
<glyph unicode="&#xe90d;" glyph-name="calendar" d="M752 832v64h-96v-64h-288v64h-96v-64h-208v-832h896v832h-208zM912 48h-800v496h800v-496zM912 592h-800v192h160v-80h96v80h288v-80h96v80h160v-192zM176 496h96v-96h-96v96zM560 496h96v-96h-96v96zM368 496h96v-96h-96v96zM752 496h96v-96h-96v96zM176 352h96v-96h-96v96zM560 352h96v-96h-96v96zM368 352h96v-96h-96v96zM752 352h96v-96h-96v96zM176 208h96v-96h-96v96zM560 208h96v-96h-96v96zM368 208h96v-96h-96v96zM752 208h96v-96h-96v96z" />
<glyph unicode="&#xe90e;" glyph-name="car" d="M900.992 562.672l-54.352 202.832c-6.448 37.728-39.088 66.496-78.64 66.496h-512c-39.552 0-72.192-28.768-78.64-66.496l-54.352-202.832c-35.12-18.896-59.008-55.984-59.008-98.672v-208h64v-112c0-17.664 14.32-32 32-32h64c17.68 0 32 14.336 32 32v112h512v-112c0-17.664 14.336-32 32-32h64c17.68 0 32 14.336 32 32v112h64v208c0 42.688-23.888 79.776-59.008 98.672zM192 352c-44.176 0-80 35.824-80 80s35.824 80 80 80c44.176 0 80-35.824 80-80s-35.824-80-80-80zM624 640c-26.512 0-48-21.488-48-48v-16h-383.152l47.152 176c0 8.832 7.168 16 16 16h512c8.832 0 16-7.168 16-16l47.152-176h-63.152v16c0 26.512-21.488 48-48 48h-96zM832 352c-44.176 0-80 35.824-80 80s35.824 80 80 80 80-35.824 80-80-35.824-80-80-80zM720 704c0-26.51-21.49-48-48-48s-48 21.49-48 48c0 26.51 21.49 48 48 48s48-21.49 48-48z" />
<glyph unicode="&#xe90f;" glyph-name="certificate" d="M624 896h-448v-896h400v-64l63.744 64 64.256-64.512v64.512h144v672l-224 224zM780.112 672h-156.112v156.112l156.112-156.112zM640 144c-44.176 0-80 35.824-80 80s35.824 80 80 80 80-35.824 80-80-35.824-80-80-80zM800 48h-96v65.152c38.368 22.112 64.256 63.424 64.256 110.848 0 70.688-57.36 128-128.128 128s-128.128-57.312-128.128-128c0-47.328 25.776-88.544 64-110.704v-65.296h-352v800h352v-224h224v-576zM320 320h144v-80h-144v80zM320 576h384v-80h-384v80zM320 448h384v-80h-384v80z" />
<glyph unicode="&#xe910;" glyph-name="charging-station" d="M592 768c0 35.344-28.656 64-64 64h-272c-35.344 0-64-28.656-64-64v-640h-64v-64h528v64h-64v640zM256 768h272v-192h-272v192zM288 608h48v32h32v-32h48v32h32v-32h48v64h-208zM880 640v48h-16v-48h-48v48h-16v-48h-16v-48c0-17.664 14.336-32 32-32v-288h-96v304c0 53.024-42.976 96-96 96v-48c26.512 0 48-21.488 48-48v-304c0-26.512 21.488-48 48-48h96c26.512 0 48 21.488 48 48v288c17.68 0 32 14.336 32 32v48h-16z" />
<glyph unicode="&#xe911;" glyph-name="clipboard" d="M800 832h-96v-48h96v-736h-576v736h96v48h-96c-26.512 0-48-21.488-48-48v-736c0-26.512 21.488-48 48-48h576c26.512 0 48 21.488 48 48v736c0 26.512-21.488 48-48 48zM672 848h-112c0 32-21.488 48-48 48s-48-16-48-48h-112v-112h320v112zM512 832c-8.832 0-16 7.168-16 16s7.168 16 16 16 16-7.168 16-16c0-8.832-7.168-16-16-16zM384 192c0-26.51-21.49-48-48-48s-48 21.49-48 48c0 26.51 21.49 48 48 48s48-21.49 48-48zM384 608c0-26.51-21.49-48-48-48s-48 21.49-48 48c0 26.51 21.49 48 48 48s48-21.49 48-48zM384 400c0-26.51-21.49-48-48-48s-48 21.49-48 48c0 26.51 21.49 48 48 48s48-21.49 48-48zM432 224h304v-64h-304v64zM432 432h304v-64h-304v64zM432 640h304v-64h-304v64z" />
<glyph unicode="&#xe912;" glyph-name="clock" d="M512 896c-247.424 0-448-200.576-448-448s200.576-448 448-448 448 200.576 448 448c0 247.424-200.576 448-448 448zM560 67.088v60.912h-96v-60.912c-173.664 21.68-311.232 159.248-332.912 332.912h60.912v96h-60.912c21.68 173.664 159.248 311.232 332.912 332.912v-60.912h96v60.912c173.664-21.68 311.232-159.248 332.912-332.912h-60.912v-96h60.912c-21.68-173.664-159.248-311.232-332.912-332.912zM185.286 277.862l41.568 24 16-27.712-41.568-24-16 27.712zM781.116 621.858l41.568 24 16-27.712-41.568-24-16 27.712zM314.132 137.302l24 41.568 27.712-16-24-41.568-27.712 16zM658.126 733.122l24 41.568 27.712-16-24-41.568-27.712 16zM658.131 162.889l27.712 16 24-41.568-27.712-16-24 41.568zM314.131 758.711l27.712 16 24-41.568-27.712-16-24 41.568zM781.11 274.143l16 27.712 41.568-24-16-27.712-41.568 24zM185.291 618.131l16 27.712 41.568-24-16-27.712-41.568 24zM544 483.536v204.464h-64v-152.576l-98.16 170-27.712-16 121.488-210.432c-7.136-8.384-11.616-19.104-11.616-30.992 0-26.512 21.488-48 48-48s48 21.488 48 48c0 14.16-6.24 26.752-16 35.536z" />
<glyph unicode="&#xe913;" glyph-name="cloud-download" d="M768 624c-22.384 0-43.776-4.032-63.76-11.072-34.32 90.576-121.648 155.072-224.24 155.072-132.544 0-240-107.456-240-240h-32c-79.536 0-144-64.464-144-144s64.464-144 144-144h208v48h-208c-53.024 0-96 42.976-96 96s42.976 96 96 96h86.288c-1.888 7.296-3.36 14.752-4.384 22.368-1.12 8.4-1.904 16.912-1.904 25.632 0 106.032 85.968 192 192 192 83.776 0 154.816-53.744 181.040-128.56 5.856-16.688 9.408-34.384 10.416-52.816 13.104 11.872 28.368 21.344 45.184 27.776 15.984 6.112 33.248 9.6 51.36 9.6 79.536 0 144-64.464 144-144s-64.464-144-144-144h-160v-48h160c106.032 0 192 85.968 192 192s-85.968 192-192 192zM576 416h-128v-208h-64l128-128 128 128h-64z" />
<glyph unicode="&#xe914;" glyph-name="cloud-signal" d="M240.464 176.464l-45.248-45.248c174.96-174.96 458.608-174.96 633.568 0l-45.248 45.248c-149.968-149.952-393.104-149.952-543.072 0zM285.728 221.728c124.976-124.96 327.584-124.96 452.544 0l-45.248 45.248c-99.968-99.968-262.064-99.968-362.032 0l-45.264-45.248zM647.76 312.24l-45.248 45.248c-49.984-49.984-131.040-49.984-181.024 0l-45.248-45.248c74.976-74.992 196.544-74.992 271.52 0zM776 768c-27.072 0-52.704-6-75.856-16.496-36.928 84.992-121.552 144.496-220.144 144.496-132.544 0-240-107.456-240-240h-48c-70.688 0-128-57.312-128-128s57.312-128 128-128l592 0.4c97.872 4.224 176 84.672 176 183.6 0 101.616-82.384 184-184 184z" />
<glyph unicode="&#xe915;" glyph-name="cloud-upload" d="M768 624c-22.384 0-43.776-4.032-63.76-11.072-34.32 90.576-121.648 155.072-224.24 155.072-132.544 0-240-107.456-240-240h-32c-79.536 0-144-64.464-144-144s64.464-144 144-144h208v48h-208c-53.024 0-96 42.976-96 96s42.976 96 96 96h86.288c-1.888 7.296-3.36 14.752-4.384 22.368-1.12 8.4-1.904 16.912-1.904 25.632 0 106.032 85.968 192 192 192 83.776 0 154.816-53.744 181.040-128.56 5.856-16.688 9.408-34.384 10.416-52.816 13.104 11.872 28.368 21.344 45.184 27.776 15.984 6.112 33.248 9.6 51.36 9.6 79.536 0 144-64.464 144-144s-64.464-144-144-144h-160v-48h160c106.032 0 192 85.968 192 192s-85.968 192-192 192zM512 448l-128-128h64v-208h128v208h64z" />
<glyph unicode="&#xe916;" glyph-name="computer" d="M912 896h-800c-26.512 0-48-16-48-48v-608c0-26.512 21.488-48 48-48h304v-144h-176v-48h544v48h-176v144h304c26.512 0 48 21.488 48 48v608c0 26.512-21.488 48-48 48zM112 288v560h800v-560h-800z" />
<glyph unicode="&#xe917;" glyph-name="computer-chart" d="M656 736h96v-352h-96v352zM464 656h96v-272h-96v272zM272 560h96v-176h-96v176zM912 896h-800c-26.512 0-48-16-48-48v-608c0-26.512 21.488-48 48-48h304v-144h-176v-48h544v48h-176v144h304c26.512 0 48 21.488 48 48v608c0 26.512-21.488 48-48 48zM912 288h-800v560h800v-560z" />
<glyph unicode="&#xe918;" glyph-name="computer-chat" d="M352 416h48v-64l64 64h208c17.68 0 32 14.32 32 32v224c0 17.68-14.32 32-32 32h-320c-17.68 0-32-14.32-32-32v-224c0-17.68 14.32-32 32-32zM912 896h-800c-26.512 0-48-16-48-48v-608c0-26.512 21.488-48 48-48h304v-144h-176v-48h544v48h-176v144h304c26.512 0 48 21.488 48 48v608c0 26.512-21.488 48-48 48zM912 288h-800v560h800v-560z" />
<glyph unicode="&#xe919;" glyph-name="computer-dock" d="M912 896h-800c-26.512 0-48-16-48-48v-608c0-26.512 21.488-48 48-48h304v-144h-176v-48h544v48h-176v144h304c26.512 0 48 21.488 48 48v608c0 26.512-21.488 48-48 48zM912 288h-800v96h800v-96zM912 432h-800v416h800v-416z" />
<glyph unicode="&#xe91a;" glyph-name="computer-signal" d="M864 208v448h-704v-448h704zM208 608h608v-352h-608v352zM864 176h-704l-96-96v-48h896v48l-96 96zM173.248 144h677.488l64-64h-805.488l64 64zM681.712 793.712l22.624 22.624c-106.224 106.224-278.448 106.224-384.672 0l22.624-22.624c93.728 93.712 245.696 93.712 339.424 0zM659.072 771.072c-81.232 81.232-212.928 81.232-294.16 0l22.624-22.624c68.736 68.736 180.176 68.736 248.896 0l22.64 22.624zM410.176 725.824l22.624-22.624c43.744 43.744 114.656 43.744 158.4 0l22.624 22.624c-56.24 56.24-147.408 56.24-203.648 0z" />
<glyph unicode="&#xe91b;" glyph-name="computer-stocks" d="M912 896h-800c-26.512 0-48-16-48-48v-608c0-26.512 21.488-48 48-48h304v-144h-176v-48h544v48h-176v144h304c26.512 0 48 21.488 48 48v608c0 26.512-21.488 48-48 48zM912 288h-800v560h800v-560zM704 640h96v-272h-96v272zM384 592h96v-224h-96v224zM224 528h96v-160h-96v160zM544 528h96v-160h-96v160zM431.824 662.224l163.968-65.584 218.848 168.336-29.28 38.032-197.152-151.648-156.032 62.416-216.784-83.376 17.216-44.8z" />
<glyph unicode="&#xe91c;" glyph-name="conversation-1" d="M912 576h-240v176c0 26.512-21.488 48-48 48h-512c-26.512 0-48-21.488-48-48v-336c0-26.512 21.488-48 48-48h80v-128l128 128h32v-176c0-26.512 21.488-48 48-48h304l128-128v128h80c26.512 0 48 21.488 48 48v336c0 26.512-21.488 48-48 48zM304 416l-64-64v64h-128v336h512v-176h-224c-26.512 0-48-21.488-48-48v-112h-48zM400 416v112h224v-112h-224zM784 192v-64l-64 64h-320v176h224c26.512 0 48 21.488 48 48v112h240v-336h-128z" />
<glyph unicode="&#xe91d;" glyph-name="kpmg_logo" horiz-adv-x="1387" d="M1157.123 340.902h-51.941l8.577 34.348h-104.065l-8.556-34.348h-50.283v7.054c0.776 3.873 1.446 7.928 2.416 12.27 9.149 37.036 33.463 73.635 75.525 73.635 16.643 0 33.181-6.345 30.917-29.365h61.915c2.437 10.743 6.535 29.040-5.146 45.86-13.201 18.28-39.783 25.616-74.259 25.616-24.523 0-60.384-3.925-91.368-24.149v186.813h206.267v-297.734zM1035.41 290.584c-11.773-2.13-23.51-3.548-34.684-3.548-29.735 0-50.417 13.818-50.851 46.058h96.073l-10.538-42.51zM916.549 460.651l-0.102-42.672c-14.376-19.863-23.302-41.55-27.475-59.023-1.58-6.116-2.687-12.051-3.287-18.054h-30.3l25.905 122.927-87.188 0.081-78.036-123.008h-5.682v297.734h206.165v-177.985zM801.417 340.902h-31.012l46.947 73.867-15.935-73.867zM676.244 464.118h-51.599l-35.396-123.216h-54.713c27.88 10.313 44.845 30.007 50.093 59.231 4.324 22.71 2.268 37.653-6.99 48.837-13.878 16.65-41.734 15.222-66.482 15.222-4.324 0-40.926-0.074-40.926-0.074v174.518h206.013v-174.518zM643.247 340.902l21.712 77.077 0.765-77.077h-22.477zM493.202 370.207h-0.063c-1.996-0.102-4.007-0.275-6.31-0.275-3.008 0-5.357-0.109-7.576-0.109l-13.194 0.109 6.102 22.555 2.885 11.201 6.923 26.24c3.065 0 6.073 0.109 8.944 0.109 3.389 0 6.909 0 10.217 0 17.433 0 28.466-0.991 32.476-6.599 3.079-4.208 2.68-11.487-0.952-22.555-6.218-19.063-14.090-28.741-39.452-30.677zM435.897 453.195l-3.227-10.701-29.495-98.14-1.164-3.453h-97.071l-7.572 15.991 104.643 106.936h-67.233l-81.828-88.144 26.505 88.144h-49.574v174.807h206.017v-185.441zM943.029 646.55v-200.349c-7.001-5.527-12.951-11.445-18.495-17.825v218.174h-221.927v-182.432h-18.386v182.432h-221.965v-182.722h-18.361v182.722h-221.969v-208.26l-56.624-188.823h49.803l25.020 83.626h7.195l41.307-83.626h60.183l-40.080 83.626h90.945l-25.235-83.626h54.434l24.896 83.39h11.949v0.236h121.177l-24.032-83.379h54.875l23.288 83.379h24.695l0.66-83.379h46.040l52.836 83.379h34.595l-17.843-83.379h54.032l17.525 83.379h31.248c-1.241-25.849 5.364-49.324 22.509-65.131 20.932-19.239 53.083-22.918 76.883-22.918 32.553 0 66.348 4.67 100.351 12.337l18.721 75.712h61.675v313.457h-221.927z" />
<glyph unicode="&#xe91e;" glyph-name="conversation-2" d="M912 576h-512c-26.512 0-48-21.488-48-48v-336c0-26.512 21.488-48 48-48h304l128-128v128h80c26.512 0 48 21.488 48 48v336c0 26.512-21.488 48-48 48zM912 192h-128v-64l-64 64h-320v336h512v-336zM672 608v144c0 26.512-21.488 48-48 48h-512c-26.512 0-48-21.488-48-48v-336c0-26.512 21.488-48 48-48h80v-80l80 80h48v160c0 44.176 35.824 80 80 80h272z" />
<glyph unicode="&#xe91f;" glyph-name="credit-card-1" d="M880 752h-736c-44.176 0-80-35.824-80-80v-448c0-44.176 32-80 80-80h736c48 0 80 32 80 80v448c0 48-35.824 80-80 80zM144 704h736c17.68 0 32-16 32-32v-32h-800v32c0 17.68 14.32 32 32 32zM880 192h-736c-16 0-32 14.32-32 32v272h800v-272c0-16-16-32-32-32z" />
<glyph unicode="&#xe920;" glyph-name="credit-card-2" d="M880 736h-736c-44.176 0-80-35.824-80-80v-32h896v32c0 48-35.824 80-80 80zM64 240c0-48 32-80 80-80h736c44.176 0 80 35.824 80 80v288h-896v-288zM736 288h176v-48h-176v48zM528 288h176v-48h-176v48zM320 288h176v-48h-176v48zM112 288h176v-48h-176v48z" />
<glyph unicode="&#xe921;" glyph-name="currency" d="M64 288v-48l352-176 544 320v48l-544-320zM960 672l-352 176-544-320 352-176 544 320zM608 800l263.776-131.888-455.776-268.112-263.792 131.888 455.792 268.112zM64 384v-48l352-176 544 320v48l-544-320zM64 480v-48l352-176 544 320v48l-544-320zM546.48 513.632c77.232 9.36 124.496 56.384 105.568 105.024s-96.864 80.496-174.096 71.136c-77.232-9.36-124.496-56.368-105.568-105.024s96.864-80.496 174.096-71.136z" />
<glyph unicode="&#xe922;" glyph-name="currency-down" d="M960 528v48l-544-320-352 176v-48l352-176zM960 720l-352 176-544-320 352-176 544 320zM608 848l263.776-131.888-455.776-268.112-263.792 131.888 455.792 268.112zM960 624v48l-544-320-352 176v-48l352-176zM546.48 561.632c77.232 9.36 124.496 56.384 105.568 105.024s-96.864 80.496-174.096 71.136c-77.232-9.36-124.496-56.368-105.568-105.024s96.864-80.496 174.096-71.136zM912 96v371.76l-96-56.464v-315.296h-48l96.448-96 96 96zM208 280l-96 48v-232h-48l96.448-96 96 96h-48.448zM560 260.704l-96-56.464v-108.24h-48l96.448-96 96 96h-48.448z" />
<glyph unicode="&#xe923;" glyph-name="currency-up" d="M64 224v-48l352-176 544 320v48l-544-320zM64 368l352-176 544 320-352 176-544-320zM416 240l-263.792 131.888 455.792 268.112 263.776-131.888-455.776-268.112zM64 320v-48l352-176 544 320v48l-544-320zM477.968 529.792c-77.232-9.36-124.496-56.368-105.568-105.024s96.864-80.496 174.096-71.152c77.232 9.36 124.496 56.384 105.568 105.024-18.928 48.656-96.88 80.512-174.096 71.152zM112 428.24l96 56.464v315.296h48.448l-96.448 96-96-96h48zM816 616l96-48v232h48.448l-96.448 96-96-96h48zM464 635.296l96 56.464v108.24h48.448l-96.448 96-96-96h48z" />
<glyph unicode="&#xe924;" glyph-name="cycle" d="M512 896c-247.424 0-448-200.576-448-448s200.576-448 448-448 448 200.576 448 448c0 247.424-200.576 448-448 448zM512 112c-185.568 0-336 150.432-336 336s150.432 336 336 336v48l112-112-112-112v80c-132.544 0-240-107.456-240-240s107.456-240 240-240 240 107.456 240 240c0 66.272-26.864 126.272-70.288 169.712l67.888 67.888c60.8-60.816 98.4-144.816 98.4-237.6 0-185.568-150.432-336-336-336z" />
<glyph unicode="&#xe925;" glyph-name="dashboard" d="M512 720c-247.424 0-448-200.576-448-448h304c0 79.536 64.464 144 144 144 15.312 0 30.048-2.432 43.888-6.864l180.112 180.112 93.248-93.248-180.112-180.112c4.432-13.84 6.864-28.576 6.864-43.888h304c0 247.424-200.576 448-448 448zM342.288 396.448l-124.448 124.448 45.264 45.248 124.448-124.448-45.264-45.248zM544 480h-64v176h64v-176zM784 496l-48 48-197.008-197.008c-5.872 2.112-12.064 3.456-18.48 4.144-2.832 0.304-5.6 0.864-8.512 0.864-5.056 0-9.952-0.592-14.736-1.488-37.12-6.928-65.264-39.376-65.264-78.512 0-44.176 35.824-80 80-80 39.136 0 71.584 28.144 78.512 65.264 0.896 4.784 1.488 9.696 1.488 14.736 0 2.912-0.56 5.68-0.864 8.512-0.688 6.416-2.032 12.608-4.144 18.48l197.008 197.008z" />
<glyph unicode="&#xe926;" glyph-name="dna" d="M724.72 800c7.072 17.28 11.28 33.568 11.28 48h-448c0-14.432 4.208-30.72 11.28-48h425.44zM699.232 752h-374.448c10.176-15.728 22.192-31.84 35.536-48h303.392c13.328 16.16 25.344 32.272 35.52 48zM568.688 608c17.888 15.408 35.168 31.504 51.44 48h-216.256c16.272-16.496 33.536-32.592 51.44-48h113.376zM299.28 96c-7.056-17.28-11.28-33.568-11.28-48h448c0 14.432-4.208 30.72-11.28 48h-425.44zM324.784 144h374.448c-10.176 15.728-22.192 31.84-35.536 48h-303.392c-13.344-16.16-25.36-32.272-35.52-48zM455.312 288c-17.888-15.408-35.168-31.504-51.44-48h216.256c-16.272 16.496-33.536 32.592-51.44 48h-113.376zM768 896v-48c0-80.672-99.392-210.048-227.808-304.304 7.088-4.64 14.176-9.168 21.2-13.376 30.448-18.272 60.72-39.296 90.144-62.016 131.424 106.768 244.464 254.304 244.464 379.696v48h-128zM483.808 352.304c-7.088 4.64-14.176 9.168-21.2 13.376-30.448 18.272-60.72 39.296-90.144 62.016-131.424-106.768-244.464-254.288-244.464-379.696v-48h128v48c0 80.672 99.392 210.048 227.808 304.304zM651.536 427.696c-4.24 3.44-8.496 6.864-12.768 10.224-4.336 3.408-8.672 6.768-13.040 10.080-26.704 20.256-53.888 38.72-80.8 54.88-11.12 6.672-22.080 13.744-32.928 21.024-4.752 3.184-9.408 6.496-14.096 9.776-4.72 3.312-9.44 6.608-14.096 10.016-128.416 94.256-227.808 223.632-227.808 304.304v48h-128v-48c0-125.392 113.040-272.928 244.464-379.712 4.24-3.44 8.496-6.864 12.768-10.224 4.336-3.408 8.672-6.768 13.040-10.064 26.704-20.256 53.888-38.72 80.8-54.88 11.136-6.672 22.080-13.744 32.928-21.024 4.752-3.184 9.408-6.496 14.096-9.776 4.72-3.312 9.44-6.608 14.096-10.016 128.416-94.256 227.808-223.632 227.808-304.304v-48h128v48c0 125.408-113.040 272.928-244.464 379.696z" />
<glyph unicode="&#xe927;" glyph-name="eco-lightbulb" d="M656 384v112.816l38.432 10.288c25.6 6.864 40.8 33.184 33.936 58.784s-33.184 40.8-58.784 33.936l-340-91.104c-25.6-6.864-40.8-33.184-33.936-58.784s33.184-40.8 58.784-33.936l13.568 3.632v-35.632h-80v-48c0-82.864 45.104-155.040 112-193.792v-94.208h48v-48h144v48h32v94.208c66.896 38.752 112 110.928 112 193.792v48h-80zM448 441.072l128 34.304v-91.376h-128v57.072zM354.416 710.528l340 91.104c25.6 6.864 40.8 33.184 33.936 58.784s-33.184 40.8-58.784 33.936l-340-91.104c-25.6-6.864-40.8-33.184-33.936-58.784 6.864-25.616 33.184-40.8 58.784-33.936zM354.416 563.264l340 91.104c25.6 6.864 40.8 33.184 33.936 58.784s-33.184 40.8-58.784 33.936l-340-91.104c-25.6-6.864-40.8-33.184-33.936-58.784s33.184-40.8 58.784-33.936z" />
<glyph unicode="&#xe928;" glyph-name="electric-car" d="M752 192c-44.176 0-80-35.824-80-80s35.824-80 80-80 80 35.824 80 80-35.824 80-80 80zM752 64c-26.512 0-48 21.488-48 48s21.488 48 48 48 48-21.488 48-48-21.488-48-48-48zM288 192c-44.176 0-80-35.824-80-80s35.824-80 80-80 80 35.824 80 80-35.824 80-80 80zM288 64c-26.512 0-48 21.488-48 48s21.488 48 48 48 48-21.488 48-48-21.488-48-48-48zM959.056 304l0.464 0.464-143.52 143.536h-96v48h-224v-48h-48l-144-144-240-48v-144h128c0 53.024 42.976 96 96 96s96-42.976 96-96h272c0 53.024 42.976 96 96 96s96-42.976 96-96h112v192h-0.944zM796.112 400l96-96h-204.112v96h108.112zM656 400v-96h-176v96h176zM448 384v-80h-80l80 80zM528 576h16v-32h128v32h16c26.512 0 48 21.488 48 48v112h-32v112h-64v-112h-64v112h-64v-112h-32v-112c0-26.512 21.488-48 48-48zM672 832c8.832 0 16-7.168 16-16s-7.168-16-16-16-16 7.168-16 16c0 8.832 7.168 16 16 16zM544 832c8.832 0 16-7.168 16-16s-7.168-16-16-16-16 7.168-16 16c0 8.832 7.168 16 16 16z" />
<glyph unicode="&#xe929;" glyph-name="electricity" d="M656 512h-128l96 384h-192l-64-512h112l-96-400z" />
<glyph unicode="&#xe92a;" glyph-name="badge" d="M448 896h128v-352h-128v352zM896 608h-288v-48h32c17.68 0 32-14.32 32-32s-14.32-32-32-32h-256c-17.68 0-32 14.32-32 32s14.32 32 32 32h32v48h-288c-35.344 0-64-28.656-64-64v-480c0-35.344 28.656-64 64-64h768c35.344 0 64 28.656 64 64v480c0 35.344-28.656 64-64 64zM496 112c0-17.68-14.32-32-32-32h-16v32c0 48-35.824 80-80 80h-128c-44.176 0-80-35.824-80-80v-32h-16c-17.68 0-32 14.32-32 32v288c0 17.68 14.32 32 32 32h320c17.68 0 32-14.32 32-32l0.656-288h-0.656zM896 144h-336v80h336v-80zM896 288h-336v80h336v-80zM383.264 288.56c0-43.98-35.652-79.632-79.632-79.632s-79.632 35.652-79.632 79.632c0 43.98 35.652 79.632 79.632 79.632s79.632-35.652 79.632-79.632z" />
<glyph unicode="&#xe92b;" glyph-name="envelope-open" d="M512 896l-105.408-64h210.816zM832 701.712v-140.864l-32-18.464v257.616h-576v-257.616l-32 18.464v140.864l-128-77.712v-624h896v624l-128 77.712zM387.6 448h248.8l-124.4-71.776-124.4 71.776zM272 752h480v-237.312l-48-27.696v41.008h-384v-41.008l-48 27.696v237.312zM112 549.776l318.192-183.568-318.192-318.208v501.776zM176 48l294.784 294.784 41.216-23.792 41.216 23.776 294.784-294.768h-672zM593.808 366.192l318.192 183.584v-501.776l-318.192 318.192zM320 656h384v-80h-384v80z" />
<glyph unicode="&#xe92c;" glyph-name="envelope-closed" d="M64 784v-656h896v656h-896zM112 678.768l318.832-183.936-318.832-318.832v502.768zM512 448l40.592 23.408 295.408-295.408h-672l295.408 295.408 40.592-23.408zM593.168 494.832l318.832 183.936v-502.768l-318.832 318.832zM512 505.232l-400 230.768h800l-400-230.768z" />
<glyph unicode="&#xe92d;" glyph-name="envelope" d="M64 784v-656h896v656h-896zM112 176v502.768l400-230.768 400 230.768v-502.768h-800zM512 505.232l-400 230.768h800l-400-230.768z" />
<glyph unicode="&#xe92e;" glyph-name="factory" d="M928 448l-31.456 448h-80.544l-32-448h-32l-31.456 448h-80.544l-32-448h-96v223.616l-224-223.616v223.616l-224-223.616v-448h112v224h112v-224h672v448z" />
<glyph unicode="&#xe92f;" glyph-name="female" d="M576 832c0-35.346-28.654-64-64-64s-64 28.654-64 64c0 35.346 28.654 64 64 64s64-28.654 64-64zM720 432l-96 272c0 0-16.064 48-64 48h-96c-47.696 0-64-48-64-48l-96-272 32-16 112 224-96-336h96l32.896-304h63.104l32 304h96l-96 336 112-224 32 16z" />
<glyph unicode="&#xe930;" glyph-name="female-business" d="M608 752c35.2 0 64 28.8 64 64s-28.8 64-64 64-64-28.8-64-64 28.8-64 64-64zM208 144h32v-160h-32v160zM432 144h32v-160h-32v160zM384 176c0 9.6-6.4 16-16 16h-64c-9.6 0-16-6.4-16-16v-32h-32v-160h160v160h-32v32zM304 176h64v-32h-64v32zM656 736h-96c-48 0-64-48-64-48l-96-272 32-16 112 224-96-336h96l33.6-304h62.4l32 304h96l-96 336 112-224 32 16-96 272c0 0-16 48-64 48z" />
<glyph unicode="&#xe931;" glyph-name="female-group-1" d="M88 416c0 17.6 14.4 32 32 32 14.4 0 27.2-9.6 30.4-22.4l-12.8-35.2c-4.8-4.8-11.2-6.4-17.6-6.4-17.6 0-32 14.4-32 32zM182.4 212.8h-35.2l30.4 107.2-14.4-28.8-51.2 25.6 20.8 60.8h-36.8c-24 0-32-24-32-24l-48-136 16-9.6 56 112-48-168h48l16-152h32l16 152h48l-17.6 60.8zM936 416c0 17.6-14.4 32-32 32-14.4 0-27.2-9.6-30.4-22.4l12.8-35.2c4.8-3.2 11.2-6.4 17.6-6.4 17.6 0 32 14.4 32 32zM824 152h48l16-152h32l16 152h48l-48 168 56-112 16 8-48 136c0 0-8 24-32 24h-36.8l20.8-60.8-51.2-25.6-14.4 28.8 30.4-107.2h-36.8l-16-59.2zM892.8 324.8l-72 203.2c0 0-12.8 36.8-48 36.8h-72c-3.2 0-6.4 0-9.6-1.6l49.6-139.2-59.2-28.8-41.6 84.8 52.8-192h-60.8l-17.6-60.8h73.6l24-227.2h48l24 228.8h72l-72 251.2 84.8-168 24 12.8zM736 576c27.2 0 48 20.8 48 48s-20.8 48-48 48-48-20.8-48-48 20.8-48 48-48zM331.2 288l54.4 190.4-41.6-84.8-59.2 28.8 49.6 139.2c-3.2 0-6.4 1.6-9.6 1.6h-72c-35.2 0-48-36.8-48-36.8l-72-201.6 24-12.8 83.2 168-72-251.2h72l24-228.8h48l24 228.8h72l-17.6 59.2h-59.2zM288 576c27.2 0 48 20.8 48 48s-20.8 48-48 48-48-20.8-48-48 20.8-48 48-48zM512 768c35.2 0 64 28.8 64 64s-28.8 64-64 64-64-28.8-64-64 28.8-64 64-64zM560 752c48 0 64-48 64-48l96-272-32-16-112 224 96-336h-96l-32-304h-62.4l-33.6 304h-96l96 336-112-224-32 16 96 272c0 0 16 48 64 48h96z" />
<glyph unicode="&#xe932;" glyph-name="female-group-2" d="M993.6 209.6l14.4-49.6h-48l-16-152h-32l-16 152h-48l14.4 49.6-25.6 6.4 1.6 4.8h51.2l-22.4 78.4 36.8 8-17.6 72c4.8 3.2 9.6 4.8 17.6 4.8l24-64 24 64c28.8 0 32-24 32-24l35.2-144-25.6-6.4zM928 392c17.6 0 32 14.4 32 32s-14.4 32-32 32-32-14.4-32-32c0-17.6 14.4-32 32-32zM96 392c17.6 0 32 14.4 32 32s-14.4 32-32 32-32-14.4-32-32c0-17.6 14.4-32 32-32zM185.6 220.8h-51.2l22.4 78.4-36.8 8 17.6 72c-4.8 3.2-9.6 4.8-17.6 4.8l-24-64-24 64c-28.8 0-32-24-32-24l-35.2-144 25.6-6.4-14.4-49.6h48l16-152h32l16 152h48l-14.4 49.6 25.6 6.4-1.6 4.8zM884.8 318.4l-52.8 217.6c0 0-6.4 36.8-48 36.8l-36.8-96-36.8 96c-16 0-27.2-6.4-35.2-12.8l35.2-148.8-49.6-11.2 28.8-102.4h-48l-17.6-59.2h72l24-228.8h48l24 228.8h72l-20.8 73.6 41.6 6.4zM276.8 584c27.2 0 48 20.8 48 48s-20.8 48-48 48-48-20.8-48-48 20.8-48 48-48zM748.8 584c27.2 0 48 20.8 48 48s-20.8 48-48 48-48-20.8-48-48 20.8-48 48-48zM331.2 296l28.8 102.4-49.6 11.2 35.2 148.8c-6.4 6.4-17.6 12.8-35.2 12.8l-36.8-96-36.8 96c-41.6 0-48-36.8-48-36.8l-49.6-216 36.8-8-20.8-73.6h72l24-228.8h48l24 228.8h72l-17.6 60.8h-46.4zM576 832c0 35.2-28.8 64-64 64s-64-28.8-64-64 28.8-64 64-64 64 28.8 64 64zM624 712l70.4-289.6-49.6-11.2 27.2-99.2h-96l-32-304h-64l-32 304h-96l27.2 99.2-49.6 11.2 70.4 289.6c0 0 8 48 64 48l48-128 48 128c56 0 64-48 64-48z" />
<glyph unicode="&#xe933;" glyph-name="female-male" d="M880 832c0-35.346-28.654-64-64-64s-64 28.654-64 64c0 35.346 28.654 64 64 64s64-28.654 64-64zM896 752h-32l-48-128-48 128h-32c-35.344 0-64-28.656-64-64v-304h64l32-384h96l32 384h64v304c0 35.344-28.656 64-64 64zM336 832c0-35.346-28.654-64-64-64s-64 28.654-64 64c0 35.346 28.654 64 64 64s64-28.654 64-64zM320 752h-96c-47.696 0-64-48-64-48l-96-272 32-16 112 224-96-336h96l32.896-304h63.104l32 304h96l-96 336 112-224 32 16-96 272c0 0-16.064 48-64 48zM512 896h80v-896h-80v896z" />
<glyph unicode="&#xe934;" glyph-name="female-reach" d="M512 720c0 62.4 49.6 112 112 112s112-49.6 112-112-49.6-112-112-112-112 49.6-112 112zM452.8 496l-100.8-203.2-176-16v-48h224l112 156.8-96-336h416l-96 336 129.6-336h41.6l-107.2 446.4c0 0-19.2 84.8-107.2 84.8h-136c-75.2 0-104-84.8-104-84.8z" />
<glyph unicode="&#xe935;" glyph-name="female-stance" d="M518.4 768c-35.2 0-64 28.8-64 64s28.8 64 64 64zM518.4 896c35.2 0 64-28.8 64-64s-28.8-64-64-64zM532.8 304l43.2-304h36.8l-4.8 304h70.4l-80 366.4 97.6-75.2-51.2-67.2 8-38.4 113.6 113.6-134.4 121.6c0 0-27.2 25.6-57.6 25.6h-115.2c-28.8 0-57.6-25.6-57.6-25.6l-134.4-121.6 113.6-113.6 8 38.4-51.2 67.2 97.6 75.2-80-366.4h70.4l-4.8-304h36.8l43.2 304h32z" />
<glyph unicode="&#xe936;" glyph-name="female-three-1" horiz-adv-x="1280" d="M243.2 768c-35.2 0-64 28.8-64 64s28.8 64 64 64 64-28.8 64-64-28.8-64-64-64zM195.2 752c-56 0-64-48-64-48l-70.4-289.6 49.6-11.2-27.2-99.2h96l32-304h64l32 304h96l-27.2 99.2 49.6 11.2-70.4 289.6c0 0-8 48-64 48l-48-128-48 128zM638.4 768c-35.2 0-64 28.8-64 64s28.8 64 64 64 64-28.8 64-64-28.8-64-64-64zM686.4 752l-48-128-48 128c-56 0-64-48-64-48l-70.4-289.6 49.6-11.2-27.2-99.2h96l32-304h64l32 304h96l-27.2 99.2 49.6 11.2-70.4 289.6c0 0-8 48-64 48zM1033.6 768c-35.2 0-64 28.8-64 64s28.8 64 64 64 64-28.8 64-64-28.8-64-64-64zM1081.6 752l-48-128-48 128c-56 0-64-48-64-48l-70.4-289.6 49.6-11.2-27.2-99.2h96l32-304h64l32 304h96l-27.2 99.2 49.6 11.2-70.4 289.6c0 0-6.4 48-64 48z" />
<glyph unicode="&#xe937;" glyph-name="female-three-2" horiz-adv-x="1280" d="M212.8 768c-35.2 0-64 28.8-64 64s28.8 64 64 64 64-28.8 64-64-28.8-64-64-64zM260.8 752h-96c-48 0-64-48-64-48l-96-272 32-16 112 224-96-336h96l33.6-304h62.4l32 304h96l-96 336 112-224 32 16-96 272c0 0-16 48-64 48zM640 768c-35.2 0-64 28.8-64 64s28.8 64 64 64 64-28.8 64-64-28.8-64-64-64zM688 752h-96c-48 0-64-48-64-48l-96-272 32-16 112 224-96-336h96l33.6-304h62.4l32 304h96l-96 336 112-224 32 16-96 272c0 0-16 48-64 48zM1067.2 768c-35.2 0-64 28.8-64 64s28.8 64 64 64 64-28.8 64-64-28.8-64-64-64zM1115.2 752h-96c-48 0-64-48-64-48l-96-272 32-16 112 224-96-336h96l33.6-304h62.4l32 304h96l-96 336 112-224 32 16-96 272c0 0-16 48-64 48z" />
<glyph unicode="&#xe938;" glyph-name="female-time" d="M624 752c-35.2 0-64 28.8-64 64s28.8 64 64 64 64-28.8 64-64-28.8-64-64-64zM672 736h-96c-48 0-64-48-64-48l-96-272 32-16 112 224-96-336h96l33.6-304h62.4l32 304h96l-96 336 112-224 32 16-96 272c0 0-16 48-64 48zM256 880c-88 0-160-72-160-160s72-160 160-160 160 72 160 160-72 160-160 160zM256 592c-70.4 0-128 57.6-128 128s57.6 128 128 128c70.4 0 128-57.6 128-128s-57.6-128-128-128zM240 732.8l-44.8 46.4-22.4-24 67.2-67.2h32v144h-32z" />
<glyph unicode="&#xe939;" glyph-name="firewall" d="M368 624h288v-160h-288v160zM528 432h288v-160h-288v160zM208 432h288v-160h-288v160zM64 432h112v-160h-112v160zM848 432h112v-160h-112v160zM64 816h112v-160h-112v160zM848 816h112v-160h-112v160zM528 816h288v-160h-288v160zM208 816h288v-160h-288v160zM688 624h272v-160h-272v160zM64 624h272v-160h-272v160zM368 240h288v-160h-288v160zM688 240h272v-160h-272v160zM64 240h272v-160h-272v160z" />
<glyph unicode="&#xe93a;" glyph-name="flag-1" d="M192 832c0 35.344-28.656 64-64 64s-64-28.656-64-64c0-23.632 12.944-44.032 32-55.12v-776.88h64v776.88c19.056 11.088 32 31.488 32 55.12zM672 704l-240 96-240-48v-48l240 48 240-96 240 40v-448l-240-40-240 96-240-48v-48l240 48 240-96 288 48v544z" />
<glyph unicode="&#xe93b;" glyph-name="lag-2" d="M160 256l256 48v544l-256-48zM432 304l256-96v544l-256 96zM704 752v-544l256 48v544zM160 848c0 26.512-21.488 48-48 48s-48-21.488-48-48c0-20.864 13.392-38.448 32-45.056v-802.944h32v802.944c18.608 6.608 32 24.192 32 45.056z" />
<glyph unicode="&#xe93c;" glyph-name="folder-1" d="M464 656v32c0 53.024-42.976 96-96 96h-304v-688h896v560h-496zM112 736h256c26.512 0 48-21.488 48-48v-32h-304v80zM912 144h-800v464h800v-464z" />
<glyph unicode="&#xe93d;" glyph-name="folder-2" d="M464 656v32c0 53.024-42.976 96-96 96h-304v-688h896v560h-496zM912 144h-800v592h256c26.512 0 48-21.488 48-48v-80h496v-464z" />
<glyph unicode="&#xe93e;" glyph-name="trash" d="M704 832h-96v32c0 17.68-14.336 32-32 32h-128c-17.68 0-32-14.32-32-32v-32h-96c-35.344 0-64-32-64-64v-48h512v48c0 35.344-28.656 64-64 64zM576 832h-128v32h128v-32zM256 64c0-35.344 28.656-64 64-64h384c35.344 0 64 28.656 64 64v624h-512v-624zM624 640h64v-576h-64v576zM480 640h64v-576h-64v576zM336 640h64v-576h-64v576z" />
<glyph unicode="&#xe93f;" glyph-name="gas-pump" d="M528 768c0 35.344-28.656 64-64 64h-272c-35.344 0-64-28.656-64-64v-640h-64v-64h528v64h-64v640zM192 768h272v-192h-272v192zM224 608h48v32h32v-32h48v32h32v-32h48v64h-208zM928 784c-23.664 0-46.096-14.368-64.48-31.504l-15.52 15.504-144-144 8-8-8-8c-16-16-16-32-16-48v-288h-32v288c0 59.616-40.816 109.568-96 123.808v-68.688c19.056-11.088 32-31.488 32-55.12v-288c0-35.344 28.656-64 64-64h32c35.344 0 64 28.656 64 64v288l8 8 24-24 80 80 32 96-9.76 9.76c13.472 12.544 28.304 22.24 41.76 22.24h32v32h-32z" />
<glyph unicode="&#xe940;" glyph-name="gavel" d="M176 80h672v-80h-672v80zM560 207.999l192.003 192.003 64.001-64.001-192.003-192.003-64.001 64.001zM208.004 559.999l192.003 192.003 64.001-64.001-192.003-192.003-64.001 64.001zM576.002 559.997l335.991 335.991 48.004-48.004-335.991-335.991-48.004 48.004zM303.993 496.004l159.997 159.997 255.993-255.993-159.997-159.997-255.993 255.993z" />
<glyph unicode="&#xe941;" glyph-name="globe" d="M512 896c-247.424 0-448-200.576-448-448s200.576-448 448-448c247.424 0 448 200.576 448 448s-200.576 448-448 448zM129.424 480c7.248 87.728 43.904 167.088 100.208 228.16 15.296-12.448 31.264-23.616 47.696-33.744-20.592-57.792-33.536-123.84-36.56-194.416h-111.344zM544 222.464c41.984-3.488 83.392-14.032 122.608-31.28-31.328-64.224-74.208-108.848-122.608-122.656v153.936zM544 286.736v129.264h175.232c-2.688-60.016-12.8-116.112-28.72-165.12-46.848 20.336-96.416 32.288-146.512 35.856zM544 480v129.264c50.096 3.568 99.664 15.52 146.512 35.856 15.904-49.008 26.032-105.104 28.72-165.12h-175.232zM480 673.536c-41.984 3.488-83.392 14.032-122.608 31.28 31.328 64.224 74.208 108.864 122.608 122.656v-153.936zM544 673.536v153.936c48.416-13.808 91.296-58.432 122.608-122.656-39.216-17.264-80.624-27.792-122.608-31.28zM688.208 789.152c20.512-10.608 39.936-23.008 58.064-36.992-8.176-6.32-16.432-12.496-24.976-18.080-10.032 19.92-21.136 38.304-33.088 55.072zM302.704 734.096c-8.544 5.568-16.8 11.744-24.976 18.080 18.144 13.984 37.568 26.384 58.064 36.992-11.952-16.784-23.056-35.168-33.088-55.072zM333.488 645.12c46.848-20.336 96.416-32.288 146.512-35.856v-129.264h-175.216c2.672 60.016 12.8 116.112 28.704 165.12zM480 416v-129.264c-50.096-3.568-99.664-15.52-146.512-35.856-15.92 49.008-26.032 105.104-28.72 165.12h175.232zM480 222.464v-153.936c-48.4 13.808-91.296 58.432-122.608 122.656 39.216 17.264 80.624 27.792 122.608 31.28zM335.792 106.848c-20.512 10.608-39.936 23.008-58.064 36.992 8.176 6.32 16.432 12.512 24.976 18.080 10.032-19.92 21.136-38.304 33.088-55.072zM721.296 161.904c8.544-5.568 16.8-11.76 24.976-18.080-18.144-14-37.568-26.384-58.064-36.992 11.952 16.784 23.056 35.168 33.088 55.072zM746.672 221.584c20.592 57.792 33.536 123.84 36.56 194.416h111.328c-7.248-87.728-43.904-167.088-100.192-228.16-15.296 12.448-31.264 23.616-47.696 33.744zM894.576 480h-111.328c-3.024 70.592-15.952 136.624-36.56 194.416 16.432 10.128 32.4 21.296 47.696 33.744 56.272-61.072 92.944-140.432 100.192-228.16zM129.424 416h111.344c3.024-70.576 15.952-136.624 36.56-194.416-16.432-10.128-32.4-21.296-47.696-33.744-56.288 61.072-92.96 140.432-100.208 228.16z" />
<glyph unicode="&#xe942;" glyph-name="globe-hand" d="M959.2 608c-4.464 85.616-44.128 161.776-105.056 214.256 0 0 0 0 0 0-53.248 45.856-122.384 73.744-198.144 73.744-167.888 0-304-136.112-304-304 0-65.76 21.28-126.32 56.832-176h41.072c-37.296 43.632-61.072 98.992-64.624 160h95.184c1.504-49.792 9.872-96.352 23.616-136.976-11.776-6.848-22.864-14.704-33.568-23.024h76.16c-1.056 2.32-2.192 4.48-3.2 6.88 29.664 13.616 62.24 21.792 96.544 23.808v-30.688h32v30.688c34.288-2.016 66.864-10.192 96.544-23.808-3.92-9.248-8.24-17.808-12.752-26 8.592-7.312 15.392-16.512 20.272-26.816 7.216 11.728 13.872 24.496 19.888 38.16 10.512-6.384 20.464-13.536 29.984-21.216 12.016 6.976 25.552 10.992 39.824 10.992 5.632 0 11.184-0.576 16.624-1.728 2.368 0.944 4.88 1.424 7.312 2.144 40.432 48.768 65.968 110.16 69.488 177.616h0.8v32h-0.8zM480.464 608h-95.184c3.824 65.408 30.656 124.48 72.704 169.376 14.24-12.288 29.616-23.264 45.968-32.784-13.664-40.528-21.984-86.944-23.488-136.592zM481.616 800.016c22.8 19.136 48.848 34.4 77.12 45.264-16.48-18.928-30.896-42.656-42.848-69.84-12.064 7.312-23.52 15.52-34.272 24.576zM640 479.152c-38.192-2-74.56-10.736-107.712-25.6-11.44 36.24-18.48 77.856-19.856 122.448h127.568v-96.848zM640 608h-127.568c1.376 44.416 8.368 85.888 19.728 122.048 33.184-14.912 69.6-23.648 107.84-25.664v-96.384zM640 736.848c-34.352 2.016-66.992 10.224-96.704 23.888 23.264 55.136 57.584 92.864 96.704 101.024v-124.912zM830.384 800.016c-10.736-9.056-22.208-17.248-34.272-24.576-11.952 27.184-26.352 50.912-42.848 69.84 28.272-10.864 54.32-26.128 77.12-45.264zM672 861.76c39.12-8.16 73.44-45.888 96.704-101.024-29.712-13.664-62.336-21.856-96.704-23.872v124.896zM779.712 453.552c-33.152 14.864-69.52 23.6-107.712 25.6v96.848h127.568c-1.376-44.592-8.416-86.208-19.856-122.448zM672 608v96.384c38.24 2.016 74.672 10.752 107.84 25.664 11.36-36.16 18.352-77.616 19.728-122.048h-127.568zM853.776 406.368c-14.208 12.24-29.552 23.168-45.872 32.656 13.744 40.624 22.112 87.184 23.616 136.976h95.184c-3.808-65.52-30.736-124.704-72.928-169.632zM831.536 608c-1.504 49.648-9.808 96.064-23.472 136.592 16.352 9.52 31.728 20.496 45.968 32.784 42.032-44.896 68.864-103.968 72.688-169.376h-95.184zM912.032 369.92c-9.328 0-18.64-2.704-26.688-8.096-6.224 2.752-12.896 4.144-19.584 4.144-12.224 0-24.432-4.64-33.776-13.968l-96-96h-144l-64 32h176c26.512 0 48 21.488 48 48s-21.488 48-48 48h-351.984l-288-144v-240l320 160 112-48h272l177.936 176c18.752 18.752 18.752 49.136 0 67.888-9.36 9.36-21.632 14.032-33.904 14.032z" />
<glyph unicode="&#xe943;" glyph-name="handshake" d="M896 656l-112-64 96-192 112 64zM128 656l-96-192 112-64 96 192zM704 560l-160.864 43.872-175.072-90.368 14.928-40.976 163.376 59.472 221.632-180 80 64-80 160zM543.168 513.808l-169.744-61.776-25.2 69.248 160.576 82.88-220.8-44.16-32 16-80-160 65.152-54.288c0.080 0.16 0.128 0.336 0.208 0.496l12.528 29.152 0.352 0.832 0.448 0.784c7.104 12.432 20.416 20.16 34.752 20.16 6.928 0 13.776-1.824 19.824-5.28 8.672-4.96 14.928-12.864 18.016-22.288 7.12 6.016 16.080 9.712 25.664 9.712 6.928 0 13.792-1.824 19.824-5.28 8.672-4.96 14.928-12.864 18.016-22.288 7.12 6.016 16.080 9.712 25.664 9.712 6.928 0 13.792-1.824 19.824-5.28 9.28-5.296 15.936-13.888 18.752-24.208 0.544-1.968 0.8-3.968 1.024-5.968 5.008 2.208 10.336 3.696 15.968 3.696 6.928 0 13.776-1.824 19.824-5.28 9.28-5.296 15.936-13.904 18.752-24.208 0.608-2.224 0.944-4.48 1.168-6.736l88.832-74.24c10.144-8.512 25.296-7.2 33.808 2.96 8.528 10.16 7.2 25.296-2.96 33.808l-143.072 120.704 10.288 12.256 157.344-132.928c10.16-8.528 25.296-7.2 33.808 2.96 8.528 10.16 7.2 25.296-2.96 33.808l-157.36 132.976 10.288 12.256 165.376-138.768c10.144-8.528 25.296-7.2 33.808 2.96 8.512 10.144 7.2 25.28-2.96 33.808 0 0-179.664 150.752-192.832 161.808zM509.072 291.104c-0.64-1.632-1.232-3.264-2.096-4.816l-21.2-42.592 34.8-24.464c10.16-8.528 25.296-7.2 33.808 2.96 8.528 10.16 7.2 25.296-2.96 33.808l-42.352 35.104zM428.336 358.272c-3.76 2.144-7.84 3.168-11.888 3.168-8.336 0-16.432-4.352-20.864-12.096l-28.704-57.68c-6.576-11.504-2.576-26.176 8.928-32.752 3.76-2.144 7.856-3.168 11.888-3.168 8.336 0 16.432 4.336 20.864 12.096l28.72 57.68c6.56 11.52 2.56 26.176-8.944 32.752zM483.904 326.512c-3.76 2.144-7.856 3.168-11.888 3.168-8.336 0-16.432-4.352-20.864-12.096l-28.704-57.68c-6.576-11.504-2.576-26.176 8.928-32.752 3.76-2.128 7.856-3.152 11.888-3.152 8.336 0 16.432 4.336 20.864 12.096l28.704 57.68c6.576 11.504 2.576 26.16-8.928 32.736zM301.328 394c-3.76 2.144-7.856 3.168-11.888 3.168-8.336 0-16.432-4.336-20.864-12.096l-12.832-29.888c-6.576-11.504-2.576-26.176 8.928-32.752 3.76-2.144 7.84-3.168 11.888-3.168 8.336 0 16.432 4.336 20.864 12.096l12.832 29.888c6.576 11.504 2.576 26.176-8.928 32.752zM364.832 376.128c-3.76 2.144-7.856 3.168-11.888 3.168-8.336 0-16.432-4.336-20.864-12.096l-20.768-43.776c-6.576-11.504-2.576-26.176 8.928-32.752 3.76-2.144 7.84-3.168 11.888-3.168 8.336 0 16.432 4.336 20.864 12.096l20.768 43.776c6.576 11.52 2.576 26.176-8.928 32.752z" />
<glyph unicode="&#xe944;" glyph-name="hand-sprout" d="M384 608c4.592-4.848 24.576-27.2 32.016-31.648 16.96-10.16 39.376-16.352 63.984-16.352 33.312 0 62.656 11.328 79.872 28.496 18.992-12.832 33.328-28.448 41.2-45.84-76.496-8.4-140.384-58.32-168.944-126.672h271.872c39.92 0 73.12-29.408 79.056-67.696l26.32 26.32c4.864 4.864 10.4 8.752 16.176 12.144-20.384 80.96-88.144 143.008-172.192 154.912 11.584 12.224 26.016 23.552 42.576 33.232 20.768-18.832 52.896-30.896 88.064-30.896 65.008 0 100.832 55.632 106.048 61.76 9.952 11.68 23.968 19.072 39.6 19.072 3.152 0 27.344-0.464 30.352-1.024-32 46.192-64 80.192-160 80.192-80 0-128-38.16-128-80 0-8.208 1.776-16.096 5.008-23.504 39.424 24.048 88.656 39.504 138.992 39.504v-16c-19.888 0-39.616-2.576-58.576-7.232-12.64-3.104-24.912-7.12-36.656-11.936-11.744-4.8-22.944-10.368-33.408-16.576-0.8-0.48-1.52-1.008-2.304-1.488-9.568-5.824-18.56-12.096-26.704-18.848-9.008-7.472-17.024-15.456-23.888-23.776 0.080-0.24 0.192-0.464 0.272-0.704-0.256 0.016-0.512 0.032-0.768 0.032-4.32-5.296-8.032-10.736-11.344-16.256v0c-1.536-2.56-3.2-5.104-4.496-7.696-1.264-2.496-2.16-5.024-3.184-7.536-4.352-10.544-6.944-21.28-6.944-31.984h-16c0 16.656 5.024 33.328 13.648 49.312 2.592 4.816 5.52 9.536 8.784 14.192 0.832 1.184 1.68 2.352 2.544 3.52-8.528 21.168-24.576 40.128-46.736 55.296-34.016 23.28-82.112 37.68-138.24 37.68v16c54.624 0 105.36-15.408 143.088-40.352 0.544 2.736 0.912 5.52 0.912 8.352 0 33.136-32.16 63.664-96 63.664-79.952 0-125.584-31.664-144-63.664 0 0 13.232 0 16 0 13.744 0 23.248-6.752 32-16zM912.032 369.92c-9.328 0-18.64-2.704-26.688-8.096-6.224 2.752-12.896 4.144-19.584 4.144-12.224 0-24.432-4.64-33.776-13.968l-96-96h-144l-64 32h176c26.512 0 48 21.488 48 48s-21.488 48-48 48h-351.984l-288-144v-240l320 160 112-48h272l177.936 176c18.752 18.752 18.752 49.136 0 67.888-9.36 9.36-21.632 14.032-33.904 14.032z" />
<glyph unicode="&#xe945;" glyph-name="heart" d="M889.712 761.712c-93.728 93.728-245.68 93.728-339.408 0-15.376-15.376-27.968-32.416-38.288-50.4-10.336 17.984-22.928 35.040-38.288 50.4-93.728 93.728-245.68 93.728-339.408 0s-93.728-245.68 0-339.408v0l377.68-374.304 377.712 374.288c93.728 93.728 93.728 245.696 0 339.424zM128 592c0 97.2 78.8 176 176 176v-64c-61.856 0-112-50.144-112-112h-64z" />
<glyph unicode="&#xe946;" glyph-name="heart-monitor" d="M912 896h-800c-26.512 0-48-16-48-48v-608c0-26.512 21.488-48 48-48h304v-144h-176v-48h544v48h-176v144h304c26.512 0 48 21.488 48 48v608c0 26.512-21.488 48-48 48zM112 288v560h800v-560h-800zM526.064 678.176c-5.776-5.776-10.224-12.304-14.064-19.088-3.84 6.784-8.288 13.312-14.064 19.088-34.432 34.432-90.256 34.432-124.688 0s-34.432-90.256 0-124.688l138.752-137.488 138.752 137.504c34.432 34.432 34.432 90.256 0 124.688-34.432 34.416-90.256 34.416-124.688-0.016z" />
<glyph unicode="&#xe947;" glyph-name="cross" d="M640 576v320h-256v-320h-320v-256h320v-320h256v320h320v256z" />
<glyph unicode="&#xe948;" glyph-name="hospital" d="M848 848h-672c-61.856 0-112-50.144-112-112v-576c0-61.856 50.144-112 112-112h672c61.856 0 112 50.144 112 112v576c0 61.856-50.144 112-112 112zM768 160h-160v208h-192v-208h-160v576h160v-208h192v208h160v-576z" />
<glyph unicode="&#xe949;" glyph-name="khouse" d="M176 464v-416h224v272h224v-272h224v416l-336 240zM800 626.912v237.088h-112v-156.656l-176 126.4-448-321.744 37.328-51.984 410.672 294.928 410.672-294.928 37.328 51.984z" />
<glyph unicode="&#xe94a;" glyph-name="institution" d="M912 160h-800v-64h-48v-64h896v64h-48zM848 192v304h64v64h-784v-64h48v-304h96v304h96v-304h96v304h96v-304h96v304h96v-304zM512 896l-448-272v-32h896v32z" />
<glyph unicode="&#xe94b;" glyph-name="laptop" d="M864 336v448h-704v-448h704zM208 736h608v-352h-608v352zM864 304h-704l-96-96v-48h896v48l-96 96zM173.248 272h677.488l64-64h-805.488l64 64z" />
<glyph unicode="&#xe94c;" glyph-name="leaf" d="M386.64 771.456c-10.048-5.072-49.264-27.712-58.672-33.872-137.504-95.648-191.792-262.096-120.672-385.28 5.328-9.232 11.504-17.856 18.112-26.096 29.344 99.552 87.216 198.832 172.112 283.728l33.952-33.936c-86.256-86.256-142.48-188.048-166.88-287.984-22.288-91.328-18.048-181.12 15.248-256.016h53.28c-35.84 64.784-43.52 145.728-25.84 229.68 97.296-48.528 229.952-45.136 324.048 18.192 150.176 101.072 152.704 279.616 168.672 344.128 16 64.672 45.104 93.408 86.128 117.104 8.272 4.768 17.024 8.016 25.872 10.896-131.632 101.008-344.080 110.976-525.36 19.456z" />
<glyph unicode="&#xe94d;" glyph-name="leaves" d="M816 624c0 0-18.624 1.904-48.752 1.904-81.904 0-258.832-9.76-367.248-113.904-81.184-77.984-109.168-198.656-121.152-284.384 26.304 34.992 58.256 80.288 89.152 108.384 17.728 16.048 50.16-14.848 46.496-18.16-55.040-49.968-105.6-121.584-143.6-181.312-37.84-59.68-64.864-105.28-65.136-105.792-8.128-15.696-2-35.008 13.68-43.136 15.696-8.128 35.008-2 43.136 13.68 0.016 0.016 52.384 90.144 59.12 100.768 82.080 0.064 258.112 18 366.304 121.952 148.288 142.48 128 400 128 400zM251.040 334.064c-16.992 47.104-28.016 97.424-27.040 145.936 3.024 150.304 114.272 260.96 172.176 318.864 21.312 21.312 35.824 33.136 35.824 33.136s79.44-70.96 126.4-183.392c15.792 4.256 31.664 7.808 47.504 10.832-49.744 124.688-136.768 203.76-141.952 208.384l-30.544 27.248-31.728-25.872c-0.672-0.544-16.656-13.632-39.44-36.4l-0.704-0.704c-59.12-59.12-182.128-182.128-185.52-351.136-1.568-78.208 24.256-160.048 58.016-229.024 4.592 29.056 10.224 56.48 17.008 82.128z" />
<glyph unicode="&#xe94e;" glyph-name="letter" d="M624 896h-448v-896h672v672l-224 224zM780.112 672h-156.112v156.112l156.112-156.112zM800 48h-576v800h352v-224h224v-576zM320 576h144v-80h-144v80zM320 400h384v-80h-384v80zM320 224h384v-80h-384v80z" />
<glyph unicode="&#xe94f;" glyph-name="letter-write" d="M688 48h-576v800h352v-224h224v-192l48 48v192l-224 224h-448v-896h672v192l-48-48v-96zM668.112 672h-156.112v156.112l156.112-156.112zM208 576h144v-80h-144v80zM208 400h368v-80h-368v80zM208 224h272v-80h-272v80zM944 496l-48 48c-17.68 17.68-46.336 17.68-64 0l-320-320v-112h112l320 320c17.664 17.68 17.664 46.32 0 64zM592 144l-48 48 256 256 48-48-256-256zM880 432l-48 48 32 32 48-48-32-32z" />
<glyph unicode="&#xe950;" glyph-name="lightbulb" d="M368 144h16v-32h-16v-16c0-26.512 21.488-48 48-48 0-26.512 21.488-48 48-48h96c26.512 0 48 21.488 48 48 26.512 0 48 21.488 48 48v16h-16v32h16v32h-288v-32zM512 896c-159.056 0-288-128.944-288-288 0-59.216 17.92-114.224 48.56-160 10.368-15.488 22.176-29.92 35.28-43.088 7.328-7.36 15.088-14.256 23.168-20.8 22.928-25.504 36.992-59.12 36.992-96.112v-80h288v80c0 36.992 14.064 70.608 36.992 96.112 8.080 6.544 15.84 13.44 23.168 20.8 13.088 13.168 24.912 27.6 35.28 43.088 30.64 45.776 48.56 100.784 48.56 160 0 159.056-128.944 288-288 288zM512 768c-88.224 0-160-71.776-160-160h-64c0 123.52 100.48 224 224 224v-64z" />
<glyph unicode="&#xe951;" glyph-name="location" d="M772.208 788.208c-143.712 143.712-376.72 143.712-520.432 0s-143.712-376.72 0-520.432l260.208-256 260.208 256c143.728 143.728 143.728 376.72 0.016 520.432zM512 720c106.032 0 192-85.968 192-192s-85.968-192-192-192c-106.048 0-192 85.968-192 192s85.952 192 192 192z" />
<glyph unicode="&#xe952;" glyph-name="klock" d="M768 608v160c0 70.688-57.312 128-128 128h-256c-70.688 0-128-57.312-128-128v-160h-80v-464c0-79.536 64.464-144 144-144h384c79.536 0 144 64.464 144 144v464h-80zM544 294.752v-134.752h-64v134.752c-28.224 12.352-48 40.464-48 73.248 0 44.176 35.824 80 80 80s80-35.824 80-80c0-32.784-19.776-60.896-48-73.248zM704 608h-384v160c0 35.344 28.656 64 64 64h256c35.344 0 64-28.656 64-64v-160z" />
<glyph unicode="&#xe953;" glyph-name="male" d="M576 832c0-35.346-28.654-64-64-64s-64 28.654-64 64c0 35.346 28.654 64 64 64s64-28.654 64-64zM592 752h-32l-48-128-48 128h-32c-35.344 0-64-28.656-64-64v-304h64l32-384h96l32 384h64v304c0 35.344-28.656 64-64 64z" />
<glyph unicode="&#xe954;" glyph-name="male-business" d="M688 832c0-35.346-28.654-64-64-64s-64 28.654-64 64c0 35.346 28.654 64 64 64s64-28.654 64-64zM704 752h-32l-48-128-48 128h-32c-35.344 0-64-28.656-64-64v-304h64l32-384h96l32 384h64v304c0 35.344-28.656 64-64 64zM224 160h32v-160h-32v160zM448 160h32v-160h-32v160zM400 192c0 8.832-7.168 16-16 16h-64c-8.832 0-16-7.168-16-16v-32h-32v-160h160v160h-32v32zM320 160v32h64v-32h-64z" />
<glyph unicode="&#xe955;" glyph-name="male-female" d="M352 832c0-35.346-28.654-64-64-64s-64 28.654-64 64c0 35.346 28.654 64 64 64s64-28.654 64-64zM368 752h-32l-48-128-48 128h-32c-35.344 0-64-28.656-64-64v-304h64l32-384h96l32 384h64v304c0 35.344-28.656 64-64 64zM784 832c0-35.346-28.654-64-64-64s-64 28.654-64 64c0 35.346 28.654 64 64 64s64-28.654 64-64zM928 432l-96 272c0 0-16.064 48-64 48h-96c-47.696 0-64-48-64-48l-96-272 32-16 112 224-96-336h96l32.896-304h63.104l32 304h96l-96 336 112-224 32 16z" />
<glyph unicode="&#xe956;" glyph-name="male-group" d="M772 624c0-26.51-21.49-48-48-48s-48 21.49-48 48c0 26.51 21.49 48 48 48s48-21.49 48-48zM348 624c0-26.51-21.49-48-48-48s-48 21.49-48 48c0 26.51 21.49 48 48 48s48-21.49 48-48zM168 416c0-17.673-14.327-32-32-32s-32 14.327-32 32c0 17.673 14.327 32 32 32s32-14.327 32-32zM176 368h-16l-24-64-24 64h-16c-17.68 0-32-6.32-32-24v-152h32l16-192h48l16 192h32v80h-32v96zM920 416c0-17.673-14.327-32-32-32s-32 14.327-32 32c0 17.673 14.327 32 32 32s32-14.327 32-32zM928 368h-16l-24-64-24 64h-16v-96h-32v-80h32l16-192h48l16 192h32v152c0 17.68-14.32 24-32 24zM832 516c0 26.512-21.488 44-48 44h-24l-36-96-36 96h-16v-192h-48v-80h40l24-288h72l24 288h48v228zM576 832c0-35.346-28.654-64-64-64s-64 28.654-64 64c0 35.346 28.654 64 64 64s64-28.654 64-64zM656 688c0 35.344-28.656 64-64 64h-32l-48-128-48 128h-32c-35.344 0-64-28.656-64-64v-304h64l32-384h96l32 384h64v304zM352 560h-16l-36-96-36 96h-24c-26.512 0-48-17.488-48-44v-228h48l24-288h72l24 288h40v80h-48v192z" />
<glyph unicode="&#xe957;" glyph-name="male-reach" d="M736 720c0-61.856-50.144-112-112-112s-112 50.144-112 112c0 61.856 50.144 112 112 112s112-50.144 112-112zM768 574.72l-272 1.28c-55.328 0-98.224-33.744-112-80l-48-192-176-16v-64h224l96 192v-368h272v368l48-368h64v416c0 56.416-39.328 110.72-96 110.72z" />
<glyph unicode="&#xe958;" glyph-name="male-stance" d="M640 448l144 128-131.28 131.28c0 0-37.392 44.72-76.72 44.72h-128c-39.328 0-76.72-44.72-76.72-44.72l-131.28-131.28 144-128v48l-64 80 80 64v-640h48l64 400 64-400h48v640l80-64-64-80v-48zM576 832c0-35.346-28.654-64-64-64s-64 28.654-64 64c0 35.346 28.654 64 64 64s64-28.654 64-64z" />
<glyph unicode="&#xe959;" glyph-name="male-three" d="M576 832c0-35.346-28.654-64-64-64s-64 28.654-64 64c0 35.346 28.654 64 64 64s64-28.654 64-64zM592 752h-32l-48-128-48 128h-32c-35.344 0-64-28.656-64-64v-304h64l32-384h96l32 384h64v304c0 35.344-28.656 64-64 64zM272 832c0-35.346-28.654-64-64-64s-64 28.654-64 64c0 35.346 28.654 64 64 64s64-28.654 64-64zM288 752h-32l-48-128-48 128h-32c-35.344 0-64-28.656-64-64v-304h64l32-384h96l32 384h64v304c0 35.344-28.656 64-64 64zM880 832c0-35.346-28.654-64-64-64s-64 28.654-64 64c0 35.346 28.654 64 64 64s64-28.654 64-64zM896 752h-32l-48-128-48 128h-32c-35.344 0-64-28.656-64-64v-304h64l32-384h96l32 384h64v304c0 35.344-28.656 64-64 64z" />
<glyph unicode="&#xe95a;" glyph-name="male-time" d="M736 832c0-35.346-28.654-64-64-64s-64 28.654-64 64c0 35.346 28.654 64 64 64s64-28.654 64-64zM752 752h-32l-48-128-48 128h-32c-35.344 0-64-28.656-64-64v-304h64l32-384h96l32 384h64v304c0 35.344-28.656 64-64 64zM304 896c-88.368 0-160-71.632-160-160s71.632-160 160-160 160 71.632 160 160c0 88.368-71.632 160-160 160zM304 608c-70.688 0-128 57.312-128 128s57.312 128 128 128 128-57.312 128-128c0-70.688-57.312-128-128-128zM288 749.248l-45.248 45.264-22.64-22.624 67.888-67.888h32v144h-32z" />
<glyph unicode="&#xe95b;" glyph-name="map" d="M64 80l288 96v656l-288-96zM416 176l192-144v672l-192 128zM672 704v-672l288 96v672z" />
<glyph unicode="&#xe95c;" glyph-name="map-location" d="M608 481.040v286.96l-192 128v-624l51.248-38.448c-2.144 12.448-3.488 25.152-3.488 38.208 0 95.616 59.952 177.040 144.24 209.28zM672 768v-272.816c5.312 0.384 10.592 0.816 16 0.816 123.84 0 224.24-100.4 224.24-224.24 0-23.376-3.6-45.904-10.24-67.104l58 19.344v640l-288-96zM64 176l288 96v624l-288-96zM823.76 407.76c-74.976 74.976-196.544 74.976-271.536 0-72.48-72.48-74.672-188.384-7.024-263.76h-1.2l144-144 144 144h-1.216c67.664 75.376 65.472 191.28-7.024 263.76zM688 171.824c-55.328 0-100.176 44.848-100.176 100.176s44.848 100.176 100.176 100.176c55.328 0 100.176-44.848 100.176-100.176s-44.848-100.176-100.176-100.176z" />
<glyph unicode="&#xe95d;" glyph-name="meal" d="M176 768h-16v-128h-32v128h-16v-128h-32v128h-16v-128l32-64v-448h48v448l32 64zM512 784c-185.568 0-336-150.432-336-336s150.432-336 336-336c185.568 0 336 150.432 336 336s-150.432 336-336 336zM512 208c-132.336 0-240 107.664-240 240s107.664 240 240 240 240-107.664 240-240-107.664-240-240-240zM512 656c-114.688 0-208-93.312-208-208s93.312-208 208-208c114.688 0 208 93.312 208 208s-93.312 208-208 208zM928 768c-26.512 0-48-21.488-48-48v-272h32v-320h48v640h-32z" />
<glyph unicode="&#xe95e;" glyph-name="medical-bag" d="M688 704v80c0 35.344-28.656 64-64 64h-224c-35.344 0-64-28.656-64-64v-80h-272v-640h896v640h-272zM400 784h224v-80h-224v80zM512 192c-106.048 0-192 85.968-192 192s85.952 192 192 192c106.032 0 192-85.968 192-192s-85.968-192-192-192zM560 512h-96v-80h-80v-96h80v-80h96v80h80v96h-80z" />
<glyph unicode="&#xe95f;" glyph-name="mobile-chat" d="M576 128h-384v672h384v-48h80v64c0 44.176-35.824 80-80 80h-384c-44.176 0-80-35.824-80-80v-736c0-44.176 35.824-80 80-80h384c44.176 0 80 35.824 80 80v192h-80v-144zM384 32c-17.68 0-32 14.32-32 32s14.32 32 32 32 32-14.32 32-32-14.32-32-32-32zM880 720h-448c-44.176 0-80-35.824-80-80v-256c0-44.176 35.824-80 80-80v-80l80 80h368c44.176 0 80 35.824 80 80v256c0 44.176-35.824 80-80 80zM720 400h-272v80h272v-80zM864 544h-416v80h416v-80z" />
<glyph unicode="&#xe960;" glyph-name="mobile-devices" d="M592 128h-416v688h544v-272h64v272c0 44.176-35.824 80-80 80h-512c-44.176 0-80-35.824-80-80v-736c0-44.176 35.824-80 80-80h408.896c-5.504 9.456-8.896 20.288-8.896 32v96zM448 32c-17.68 0-32 14.336-32 32 0 17.68 14.32 32 32 32s32-14.32 32-32c0-17.664-14.32-32-32-32zM880 512h-224c-17.68 0-32-14.32-32-32v-448c0-17.664 14.32-32 32-32h224c17.68 0 32 14.336 32 32v448c0 17.68-14.32 32-32 32zM736 480h64v-16h-64v16zM768 16c-17.68 0-32 14.336-32 32 0 17.68 14.32 32 32 32s32-14.32 32-32c0-17.664-14.32-32-32-32zM880 96h-224v352h224v-352z" />
<glyph unicode="&#xe961;" glyph-name="mobile-signal" d="M240.464 719.536l-45.248 45.248c-174.96-174.96-174.96-458.608 0-633.568l45.248 45.248c-149.952 149.968-149.952 393.104 0 543.072zM330.976 629.024l-45.264 45.264c-124.96-124.976-124.96-327.584 0-452.544l45.264 45.248c-99.968 99.968-99.968 262.048 0 362.032zM376.24 583.76c-74.976-74.976-74.976-196.544 0-271.536l45.248 45.248c-49.984 49.984-49.984 131.040 0 181.024l-45.248 45.264zM880 896h-352c-44.176 0-80-35.824-80-80v-736c0-44.176 35.824-80 80-80h352c44.176 0 80 35.824 80 80v736c0 44.176-35.824 80-80 80zM704 32c-17.68 0-32 14.32-32 32s14.32 32 32 32 32-14.32 32-32-14.32-32-32-32zM880 128h-352v672h352v-672z" />
<glyph unicode="&#xe962;" glyph-name="mobile" d="M704 896h-384c-44.176 0-80-35.824-80-80v-736c0-44.176 35.824-80 80-80h384c44.176 0 80 35.824 80 80v736c0 44.176-35.824 80-80 80zM432 864h160v-32h-160v32zM512 32c-17.68 0-32 14.32-32 32s14.32 32 32 32c17.68 0 32-14.32 32-32s-14.32-32-32-32zM704 128h-384v672h384v-672z" />
<glyph unicode="&#xe963;" glyph-name="mobile-dark" d="M704 896h-384c-44.176 0-80-35.824-80-80v-736c0-44.176 32-80 80-80h384c48 0 80 32 80 80v736c0 48-32 80-80 80zM704 48h-384c-16 0-32 14.32-32 32v736c0 17.68 14.32 32 32 32h384c16 0 32-16 32-32v-736c0-16-16-32-32-32zM336 768h352v-624h-352v624zM544 96c0-17.673-14.327-32-32-32s-32 14.327-32 32c0 17.673 14.327 32 32 32s32-14.327 32-32zM432 816h160v-32h-160v32z" />
<glyph unicode="&#xe964;" glyph-name="network-1" d="M816 320v144h-288v112h144v320h-320v-320h144v-112h-288v-144h-144v-320h320v320h-144v112h544v-112h-144v-320h320v320z" />
<glyph unicode="&#xe965;" glyph-name="network-2" d="M96 496h160v-144h-160v144zM768 496h160v-144h-160v144zM432 496h160v-144h-160v144zM192 592h640v-64h32v96h-336v64h144v144h-320v-144h144v-64h-336v-96h32zM64 240v-208h224v208h-224zM256 176h-160v31.904l160-0.48v-31.424zM192 320h-32v-32h-96v-32h224v32h-96zM736 240v-208h224v208h-224zM928 176h-160v31.904l160-0.48v-31.424zM864 288v32h-32v-32h-96v-32h224v32zM400 240v-208h224v208h-224zM592 176h-160v31.904l160-0.48v-31.424zM528 320h-32v-32h-96v-32h224v32h-96z" />
<glyph unicode="&#xe966;" glyph-name="office" d="M736 512v-112h-32v368l-96 128-96-128v-160h-192v-368h-32v176h-224v-416h896v512z" />
<glyph unicode="&#xe967;" glyph-name="oil-can" d="M800 760v48c0 48.608-128.944 88-288 88s-288-39.392-288-88c0 0 0-39.664 0-48 0-14.496 11.68-28.144 32-40.192v-55.616c-20.32-12.064-32-25.696-32-40.192 0 0 0-39.664 0-48 0-14.496 11.68-28.144 32-40.192v-175.616c-20.32-12.064-32-25.696-32-40.192 0 0 0-39.664 0-48 0-14.496 11.68-28.144 32-40.192v-55.616c-20.32-12.064-32-25.696-32-40.192 0 0 0-39.664 0-48 0-48.608 128.944-88 288-88s288 39.392 288 88v48c0 14.496-11.68 28.144-32 40.192v55.616c20.32 12.064 32 25.696 32 40.192v48c0 14.496-11.68 28.144-32 40.192v175.616c20.32 12.064 32 25.696 32 40.192v48c0 14.496-11.68 28.144-32 40.192v55.616c20.32 12.048 32 25.696 32 40.192zM512 208c-77.952 0-144 66.048-144 144 0 111.424 144 272 144 272s144-160.576 144-272c0-77.952-66.048-144-144-144zM512 752c-132.544 0-240 25.072-240 56s107.456 56 240 56c132.544 0 240-25.072 240-56s-107.456-56-240-56zM477.664 816c0-8.837-28.131-16-62.832-16s-62.832 7.163-62.832 16c0 8.837 28.131 16 62.832 16s62.832-7.163 62.832-16zM429.712 352c0 16.768 4.784 37.44 14.224 61.424l-27.648 10.88c-10.8-27.472-16.288-51.792-16.288-72.304 0-41.152 20.544-79.36 54.944-102.192l16.432 24.752c-26.080 17.328-41.664 46.272-41.664 77.44z" />
<glyph unicode="&#xe968;" glyph-name="oil-jug" d="M433.632 271.888c7.296-36.848 41.12-63.312 78.368-63.888 43.248-0.656 78.8 35.92 79.824 78.256 0.944 44.592-31.024 73.808-55.728 106.976-7.744 10.384-21.376 25.12-23.232 38.784-4.24-16.512-18.672-32.176-28.864-45.136-26.832-34.096-59.728-67.712-50.368-114.992zM624 720h0.304l-400.304-176v-496c0-26.512 21.488-48 48-48h480c26.512 0 48 21.488 48 48v720h-176v-48zM672.208 320c0-88.368-71.52-160-159.728-160-88.224 0-159.728 71.632-159.728 160s71.52 160 159.728 160c88.224 0 159.728-71.632 159.728-160zM768 880h-112c-17.68 0-32-14.32-32-32v-48h176v48c0 17.68-14.32 32-32 32z" />
<glyph unicode="&#xe969;" glyph-name="oil-tank" d="M864 112v560h-64v-560h-64v32h-128v-32h-64v560h-384v-560h-96v-64h896v64zM608 672h128v-32h-128v32zM608 592h128v-64h-128v64zM608 480h128v-64h-128v64zM608 368h128v-64h-128v64zM608 256h128v-64h-128v64zM512 832c-113.568 0-217.2-42.336-296.16-112h592.32c-78.96 69.664-182.592 112-296.16 112z" />
<glyph unicode="&#xe96a;" glyph-name="oil-value" d="M528 299.504v-96.752c16 2.304 46.656 18.416 46.656 48.96 0 24.176-14.656 38.576-46.656 47.792zM452.24 434.848c0-32.832 27.76-40.896 43.76-47.792v92.72c-32-1.744-43.76-20.752-43.76-44.928zM512 896c0 0-304-352-304-592 0-167.888 136.112-304 304-304s304 136.112 304 304c0 240-304 592-304 592zM606.672 167.616c-29.952-21.312-62.672-23.616-78.672-24.768v-62.848h-32v62.848c-64-1.712-88.192 28-96.832 36.064-24.176 22.448-32.32 45.088-33.456 93.088h78.304c-1.712-64 35.984-68.112 51.984-68.112v101.936c-64 17.28-120.72 39.744-120.72 117.504 0 20.736 3.632 48.944 28.384 76.016 32.832 35.712 76.336 38.592 92.336 40.896v51.76h32v-50.608c32-2.304 65.136-5.456 92.192-32.528 27.664-27.648 28.288-60.864 28.848-76.864h-77.168c-1.712 32-11.872 46.032-43.872 48.928v-102.512c64-16.128 126.88-35.712 126.88-118.064 0-46.080-25.744-76.624-48.208-92.736z" />
<glyph unicode="&#xe96b;" glyph-name="options" d="M912 848h-800c-26.512 0-48-21.488-48-48v-704c0-26.512 21.488-48 48-48h800c26.512 0 48 21.488 48 48v704c0 26.512-21.488 48-48 48zM736 736h64v-48h-64v48zM480 736h64v-368h-64v368zM224 736h64v-208h-64v208zM288 160h-64v208h64v-208zM336 400h-160v96h160v-96zM544 160h-64v48h64v-48zM592 240h-160v96h160v-96zM800 160h-64v368h64v-368zM848 560h-160v96h160v-96z" />
<glyph unicode="&#xe96c;" glyph-name="overheat-car" d="M742.112 472.848l128.512 128.512-22.624 22.64-144-144-176 128h-240l-128-128h-48c-26.512 0-48-21.488-48-48v-144h80c0-44.176 35.824-80 80-80s80 35.824 80 80h416c0-44.176 35.824-80 80-80s80 35.824 80 80h80v144l-217.888 40.848zM517.6 576l132-96h-249.6v96h117.6zM301.248 576h50.752v-96h-146.752l96 96zM752 624c-15.808 22.368 0.192 57.648 16 80 24.16 34.16 24.16 93.84 0 128l-16-16c15.808-22.352-0.192-57.632-16-80-24.16-34.16-19.952-93.84 4.192-128l11.808 16z" />
<glyph unicode="&#xe96d;" glyph-name="paperclip" d="M504.72 513.504l-33.664 33.664-264.256-264.128c-46.56-46.56-46.56-122.064 0-168.624s122.064-46.56 168.624 0l510.176 510.176c62.096 62.080 62.096 162.752 0 224.832-62.080 62.080-162.752 62.080-224.832 0l-510.176-510.176c-77.616-77.616-77.616-203.44 0-281.040 77.616-77.616 203.44-77.616 281.040 0l264.192 264.176-33.728 33.728-264.176-264.176c-58.992-58.976-154.608-58.976-213.6 0-58.976 58.976-58.976 154.608 0 213.6l510.192 510.176c43.456 43.456 113.92 43.456 157.392 0s43.456-113.92 0-157.392l-510.192-510.176c-27.936-27.936-73.232-27.936-101.184 0s-27.936 73.232 0 101.184l264.192 264.176z" />
<glyph unicode="&#xe96e;" glyph-name="people-link" d="M608 800c0-53.019-42.981-96-96-96s-96 42.981-96 96c0 53.019 42.981 96 96 96s96-42.981 96-96zM672 592c0 53.024-42.976 96-96 96h-128c-53.024 0-96-42.976-96-96v-64h320v64zM896 320c0-53.019-42.981-96-96-96s-96 42.981-96 96c0 53.019 42.981 96 96 96s96-42.981 96-96zM864 208h-128c-53.024 0-96-42.976-96-96v-64h320v64c0 53.024-42.976 96-96 96zM320 320c0-53.019-42.981-96-96-96s-96 42.981-96 96c0 53.019 42.981 96 96 96s96-42.981 96-96zM288 208h-128c-53.024 0-96-42.976-96-96v-64h320v64c0 53.024-42.976 96-96 96zM504 306.688l139.28-87.040 25.44 40.704-140.72 87.952v147.696h-48v-147.696l-140.72-87.952 25.44-40.704z" />
<glyph unicode="&#xe96f;" glyph-name="people-cirle" d="M807.216 463.632c17.36-0.976 33.792-5.392 48.64-12.64-1.248 144.656-92.272 268-219.92 317.536-4.048-15.92-11.056-30.64-20.448-43.568 107.584-40.336 185.408-141.376 191.728-261.328zM408.528 724.96c-9.392 12.928-16.4 27.648-20.448 43.568-127.664-49.536-218.672-172.88-219.92-317.536 14.848 7.248 31.28 11.664 48.64 12.64 6.304 119.952 84.128 220.992 191.728 261.328zM408.384 171.088c4.832-13.488 7.616-27.952 7.616-43.088v-10.096c30.512-8.896 62.656-13.904 96-13.904s65.488 5.008 96 13.904v10.096c0 15.136 2.784 29.6 7.616 43.088-32.304-12.128-67.12-19.088-103.616-19.088s-71.312 6.96-103.616 19.088zM608 800c0-53.019-42.981-96-96-96s-96 42.981-96 96c0 53.019 42.981 96 96 96s96-42.981 96-96zM448 688c-53.024 0-96-42.976-96-96v-64h320v64c0 53.024-42.976 96-96 96h-128zM896 336c0-53.019-42.981-96-96-96s-96 42.981-96 96c0 53.019 42.981 96 96 96s96-42.981 96-96zM864 224h-128c-53.024 0-96-42.976-96-96v-64h320v64c0 53.024-42.976 96-96 96zM320 336c0-53.019-42.981-96-96-96s-96 42.981-96 96c0 53.019 42.981 96 96 96s96-42.981 96-96zM288 224h-128c-53.024 0-96-42.976-96-96v-64h320v64c0 53.024-42.976 96-96 96z" />
<glyph unicode="&#xe970;" glyph-name="people-stucture" d="M608 768c0-53.019-42.981-96-96-96s-96 42.981-96 96c0 53.019 42.981 96 96 96s96-42.981 96-96zM672 560c0 53.024-42.976 96-96 96h-128c-53.024 0-96-42.976-96-96v-80h320v80zM192 416h304v-64h32v64h304v-64h32v96h-704v-96h32zM576 256c0-35.346-28.654-64-64-64s-64 28.654-64 64c0 35.346 28.654 64 64 64s64-28.654 64-64zM560 176h-96c-35.344 0-64-28.656-64-64v-64h224v64c0 35.344-28.656 64-64 64zM912 256c0-35.346-28.654-64-64-64s-64 28.654-64 64c0 35.346 28.654 64 64 64s64-28.654 64-64zM896 176h-96c-35.344 0-64-28.656-64-64v-64h224v64c0 35.344-28.656 64-64 64zM240 256c0-35.346-28.654-64-64-64s-64 28.654-64 64c0 35.346 28.654 64 64 64s64-28.654 64-64zM224 176h-96c-35.344 0-64-28.656-64-64v-64h224v64c0 35.344-28.656 64-64 64z" />
<glyph unicode="&#xe971;" glyph-name="pie-chart-1" d="M480 894.736c-232.464-16.432-416-210.080-416-446.736 0-112.192 41.344-214.672 109.488-293.264l306.512 306.512v433.488zM544 894.736v-459.984l-325.264-325.264c78.592-68.144 181.072-109.488 293.264-109.488 247.424 0 448 200.576 448 448 0 236.656-183.536 430.304-416 446.736z" />
<glyph unicode="&#xe972;" glyph-name="pie-chart-2" d="M544 894.736v-459.984l-325.264-325.264c78.592-68.144 181.072-109.488 293.264-109.488 247.424 0 448 200.576 448 448 0 236.656-183.536 430.304-416 446.736zM173.488 741.264c-68.144-78.592-109.488-181.072-109.488-293.264s41.344-214.672 109.488-293.264l293.264 293.264-293.264 293.264zM480 894.736c-99.632-7.040-190.208-46.624-261.264-108.224l261.264-261.264v369.488z" />
<glyph unicode="&#xe973;" glyph-name="pie-chart-3" d="M173.488 741.264c-61.616-71.056-101.184-161.632-108.224-261.264h369.488l-261.264 261.264zM544 894.736v-893.472c232.464 16.416 416 210.080 416 446.736s-183.536 430.304-416 446.736zM480 1.264v414.736h-414.736c15.68-221.888 192.848-399.056 414.736-414.736zM480 525.248v369.488c-99.632-7.040-190.208-46.624-261.264-108.224l261.264-261.264z" />
<glyph unicode="&#xe974;" glyph-name="piggy-bank" d="M797.040 624.352c-29.776 17.36-61.504 31.904-94.816 42.816-8.24-15.008-18.912-28.496-31.744-39.68 40.224-10.672 77.84-27.744 111.408-50.432l-34.896-34.896c-49.504 31.408-108.032 49.84-170.992 49.84s-121.488-18.432-170.992-49.84l-34.896 34.896c33.568 22.704 71.184 39.776 111.408 50.432-13.024 11.36-23.84 25.104-32.128 40.4-51.312-16.448-98.448-42.24-138.944-75.904h-134.448l64-64c0 0-32-32-48-64-17.552-35.088-48-64-80-64h-48v-48c0-14.464 5.936-27.104 16.016-35.824 8.48-7.328 239.984-124.16 239.984-124.16l-32-96h80l64 64h288l-32-64h96c0 0 176 127.12 176 272 0 127.12-80 208-162.96 256.352zM688 736c0-61.856-50.144-112-112-112s-112 50.144-112 112c0 61.856 50.144 112 112 112s112-50.144 112-112z" />
<glyph unicode="&#xe975;" glyph-name="pill" d="M828.784 764.784c-74.976 74.976-196.544 74.976-271.536 0l-362.032-362.032c-74.976-74.976-74.976-196.544 0-271.536 74.976-74.976 196.544-74.976 271.536 0l362.032 362.032c74.976 74.992 74.976 196.56 0 271.536zM796.176 527.2l-360.864-362.048c-26.048-26.048-67.312-42.176-99.312-42.176v32c32 0 56.416 12.544 76.688 32.8l191.088 192.336-181.664 181.024 169.408 169.712c56.24 56.24 147.248 56.24 203.488 0 56.224-56.24 57.408-147.408 1.168-203.648z" />
<glyph unicode="&#xe976;" glyph-name="plane-right" d="M912 496h-272l-240 384h-96l128-384h-208l-64 96h-96l48-144-48-144h96l64 96h208l-128-384h96l240 384h272c26.512 0 48 21.488 48 48s-21.488 48-48 48z" />
<glyph unicode="&#xe977;" glyph-name="plane-across" d="M848 784c-18.752 18.752-49.136 18.752-67.888 0l-192.32-192.336-441.248 101.824-67.888-67.888 362.032-181.024-147.072-147.072-113.136 22.624-67.888-67.888 135.76-67.888 67.888-135.76 67.888 67.888-22.624 113.136 147.072 147.072 181.024-362.016 67.888 67.888-101.824 441.232 192.336 192.32c18.752 18.752 18.752 49.136 0 67.888z" />
<glyph unicode="&#xe978;" glyph-name="plane-up" d="M944 240v96l-384 240v272c0 26.512-21.488 48-48 48s-48-21.488-48-48v-272l-384-240v-96l384 128v-208l-96-64v-96l144 48 144-48v96l-96 64v208l384-128z" />
<glyph unicode="&#xe979;" glyph-name="preferences" d="M639.648 412.176l45.488 26.256-48 83.136-45.376-26.208c-9.872 11.68-20.704 22.512-32.384 32.384l26.192 45.376-83.136 48-26.256-45.488c-14.24 5.136-28.96 9.168-44.176 11.888v52.48h-96v-52.48c-15.216-2.72-29.936-6.736-44.176-11.872l-26.256 45.488-83.136-48 26.192-45.376c-11.68-9.872-22.512-20.704-32.384-32.384l-45.376 26.208-48-83.136 45.488-26.256c-5.12-14.256-9.152-28.976-11.872-44.192h-52.48v-96h52.48c2.72-15.216 6.736-29.936 11.872-44.176l-45.472-26.256 48-83.136 45.376 26.192c9.872-11.68 20.704-22.512 32.384-32.384l-26.192-45.376 83.136-48 26.256 45.488c14.224-5.136 28.944-9.152 44.176-11.872v-52.48h96v52.48c15.216 2.72 29.936 6.736 44.176 11.872l26.256-45.488 83.136 48-26.192 45.376c11.68 9.872 22.512 20.704 32.384 32.384l45.376-26.192 48 83.136-45.488 26.256c5.136 14.224 9.152 28.96 11.872 44.176h52.464v96h-52.48c-2.72 15.216-6.752 29.936-11.872 44.176zM384 96c-123.712 0-224 100.288-224 224s100.288 224 224 224 224-100.288 224-224-100.288-224-224-224zM560 320c0-97.202-78.798-176-176-176s-176 78.798-176 176c0 97.202 78.798 176 176 176s176-78.798 176-176zM832 704c0-35.346-28.654-64-64-64s-64 28.654-64 64c0 35.346 28.654 64 64 64s64-28.654 64-64zM960 672v64h-35.216c-4.144 20.416-12.224 39.392-23.344 56.192l24.96 24.944-45.264 45.264-24.944-24.96c-16.784 11.12-35.776 19.2-56.192 23.344v35.216h-64v-35.216c-20.416-4.144-39.408-12.224-56.192-23.344l-24.944 24.96-45.264-45.264 24.944-24.944c-11.12-16.784-19.2-35.776-23.344-56.192h-35.2v-64h35.216c4.144-20.416 12.224-39.392 23.344-56.192l-24.96-24.944 45.264-45.264 24.944 24.944c16.784-11.12 35.776-19.2 56.192-23.344v-35.2h64v35.216c20.416 4.144 39.408 12.224 56.192 23.344l24.944-24.944 45.264 45.264-24.944 24.944c11.12 16.784 19.2 35.76 23.344 56.192h35.2zM656 704c0 61.856 50.144 112 112 112s112-50.144 112-112-50.144-112-112-112-112 50.144-112 112z" />
<glyph unicode="&#xe97a;" glyph-name="protection" d="M192 896v-576c0-150.224 169.776-320 320-320 144 0 320 176 320 320v576h-640zM784 320c0-128-144-272-272-272-123.712 0-272 148.288-272 272v528h544v-528zM752 320v496h-240v-736c105.424 0 240 134.576 240 240z" />
<glyph unicode="&#xe97b;" glyph-name="pump-jack" d="M896 144v96h-96v-96h-112l-134.848 449.488 123.008 71.008 149.408-174.208 6.432 3.728v-222.016h32v240.48l16.992 9.808-87.184 247.008-90.96 93.552-83.136-48 26.768-93.584-350.016-202.080c-19.152 11.040-43.376 12.096-63.888 0.24-29.792-17.2-40.304-54.656-24.576-84.88v-290.544h-144v-64h896v64h-64zM489.52 390.48l30.48-30.48-49.040-49.040 18.56 79.52zM501.616 442.368l14.384 61.632 32.576-108.576-46.96 46.944zM564.928 340.928l59.072-196.928-128 128 68.928 68.928zM256.576 477.856c7.648 4.416 17.44 1.792 21.856-5.856s1.792-17.44-5.856-21.856c-7.648-4.416-17.44-1.792-21.856 5.856s-1.792 17.44 5.856 21.856zM240 144v261.168c15.040-6.272 32.16-6.736 48-0.464v-260.704h-48zM320 144v288.512c5.408 9.536 8.256 20.208 8.32 31.168l132.064 76.256-92.384-395.936h-48zM456.224 247.776l103.776-103.776h-128l24.224 103.776z" />
<glyph unicode="&#xe97c;" glyph-name="recycle-bin" d="M720 224c-61.856 0-112-50.144-112-112s50.144-112 112-112 112 50.144 112 112-50.144 112-112 112zM720 64c-26.512 0-48 21.488-48 48s21.488 48 48 48 48-21.488 48-48c0-26.512-21.488-48-48-48zM848 896h-704c-17.68 0-32-14.32-32-32s14.32-32 32-32h512v-32h-528v-160c0-17.664 14.32-32 32-32l32-496c0-26.512 21.488-48 48-48h327.344c-4.752 15.152-7.344 31.28-7.344 48 0 88.368 71.632 160 160 160 5.408 0 10.736-0.288 16-0.8v336.8h16c17.68 0 32 14.336 32 32v160h64c26.512 0 48 21.488 48 48s-21.488 48-48 48zM480 304c-97.2 0-176 78.8-176 176s78.8 176 176 176v32l56-56-56-56v32c-70.688 0-128-57.312-128-128s57.312-128 128-128 128 57.312 128 128c0 35.344-14.32 67.344-37.488 90.512l33.936 33.936c31.856-31.84 51.552-75.84 51.552-124.448 0-97.2-78.8-176-176-176z" />
<glyph unicode="&#xe97d;" glyph-name="run" d="M800 544l128 160-32 32-96-96-112 96c-31.008 31.008-49.008 32-80 32h-160l-128-192 32-32 128 144h64l-240-304-240-32v-64h272l144 144 128-112-48-288 64-16 80 336-128 128 112 144 112-80zM800 816c0-35.346-28.654-64-64-64s-64 28.654-64 64c0 35.346 28.654 64 64 64s64-28.654 64-64z" />
<glyph unicode="&#xe97e;" glyph-name="shopping-bag" d="M688 672v48c0 97.2-78.8 176-176 176s-176-78.8-176-176v-48h-160v-672h672v672h-160zM368 720c0 79.536 64.464 144 144 144s144-64.464 144-144v-48h-288v48zM352 576c-13.248 0-24 10.752-24 24s10.752 24 24 24 24-10.752 24-24-10.752-24-24-24zM672 576c-13.248 0-24 10.752-24 24s10.752 24 24 24 24-10.752 24-24-10.752-24-24-24z" />
<glyph unicode="&#xe97f;" glyph-name="shopping-cart" d="M368 160c0-35.346-28.654-64-64-64s-64 28.654-64 64c0 35.346 28.654 64 64 64s64-28.654 64-64zM663.968 160c0-35.346-28.654-64-64-64s-64 28.654-64 64c0 35.346 28.654 64 64 64s64-28.654 64-64zM816 752l-25.728-96h-726.272l107.184-400h561.616l120.032 448h107.168v48h-144zM695.952 304h-487.936l-34.304 128h556.544l-34.304-128zM743.12 480h-582.272l-34.288 128h650.864l-34.304-128z" />
<glyph unicode="&#xe980;" glyph-name="signal" d="M304 120c0-66.274-53.726-120-120-120s-120 53.726-120 120c0 66.274 53.726 120 120 120s120-53.726 120-120zM64 896v-176c397.648 0 720-322.352 720-720h176c0 494.848-401.152 896-896 896zM64 592v-176c229.744 0 416-186.256 416-416h176c0 326.96-265.056 592-592 592z" />
<glyph unicode="&#xe981;" glyph-name="signal-tower" d="M512 640c-35.344 0-64-28.656-64-64 0-23.632 12.944-44.032 32-55.12v-520.88h64v520.88c19.056 11.088 32 31.488 32 55.12 0 35.344-28.656 64-64 64zM376.24 711.76c-74.976-74.976-74.976-196.544 0-271.536l45.248 45.248c-49.984 49.984-49.984 131.040 0 181.024l-45.248 45.264zM647.76 711.76l-45.248-45.248c49.984-49.984 49.984-131.040 0-181.024l45.248-45.248c74.992 74.976 74.992 196.544 0 271.52zM330.976 757.024l-45.264 45.248c-124.96-124.96-124.96-327.584 0-452.544l45.264 45.248c-99.968 99.984-99.968 262.064 0 362.048zM738.272 802.272l-45.248-45.248c99.968-99.968 99.968-262.064 0-362.032l45.248-45.248c124.976 124.944 124.976 327.568 0 452.528zM240.464 847.536l-45.248 45.248c-174.96-174.96-174.96-458.608 0-633.568l45.248 45.248c-149.952 149.968-149.952 393.104 0 543.072zM828.784 892.784l-45.248-45.248c149.968-149.968 149.968-393.104 0-543.056l45.248-45.248c174.96 174.944 174.96 458.592 0 633.552z" />
<glyph unicode="&#xe982;" glyph-name="sleep" d="M336 560c0-35.346-28.654-64-64-64s-64 28.654-64 64c0 35.346 28.654 64 64 64s64-28.654 64-64zM160 384v320h-64v-496h64v112h704v-112h64v176zM224 416h192v144c0 17.68-14.32 32-32 32s-32-14.32-32-32v-80h-128c-17.68 0-32-14.32-32-32s14.32-32 32-32zM848 576h-416v-160h496v80c0 44.176-35.824 80-80 80z" />
<glyph unicode="&#xe983;" glyph-name="small-group" d="M384 688c0-61.856-50.144-112-112-112s-112 50.144-112 112c0 61.856 50.144 112 112 112s112-50.144 112-112zM416 400c2.016 0 3.984-0.224 5.984-0.304-32.88 26.4-53.984 66.864-53.984 112.304 0 10.944 1.328 21.568 3.648 31.824-1.216 0.032-2.416 0.176-3.648 0.176h-192c-61.856 0-112-50.144-112-112v-160h208.944c7.968 72 68.944 128 143.056 128zM864 688c0-61.856-50.144-112-112-112s-112 50.144-112 112c0 61.856 50.144 112 112 112s112-50.144 112-112zM848 544h-192c-1.232 0-2.432-0.144-3.648-0.176 2.32-10.256 3.648-20.88 3.648-31.824 0-45.44-21.104-85.904-53.984-112.304 2 0.080 3.968 0.304 5.984 0.304 74.112 0 135.088-56 143.056-128h208.944v160c0 61.856-50.144 112-112 112zM624 512c0-61.856-50.144-112-112-112s-112 50.144-112 112c0 61.856 50.144 112 112 112s112-50.144 112-112zM608 368h-192c-61.856 0-112-50.144-112-112v-160h416v160c0 61.856-50.144 112-112 112z" />
<glyph unicode="&#xe984;" glyph-name="smoke-stacks" d="M832 768h-32.272c-31.376 75.104-105.248 128-191.728 128-103.968 0-189.856-76.352-205.28-176h-66.72c-61.856 0-112-50.144-112-112v-128h32v128c0 44.176 35.824 80 80 80h96c0 10.944 1.136 21.616 3.040 32 15.072 81.904 86.704 144 172.96 144 74.288 0 137.696-46.096 163.52-111.184 2.176-5.472 4.064-11.088 5.68-16.816h54.8c53.024 0 96-42.976 96-96 0-47.552-34.608-86.928-80-94.56-5.216-0.88-10.528-1.44-16-1.44h-448c-0.176 0-0.336-0.048-0.496-0.048-15.52-0.128-29.568-5.952-40.576-15.248-2.48-2.096-4.784-4.336-6.912-6.768-6.24-7.152-10.88-15.632-13.456-25.040-0.080-0.304-0.192-0.576-0.272-0.88-1.36-5.152-2.288-10.464-2.288-16.016h32c0 5.856 1.696 11.28 4.432 16 0.416 0.72 0.768 1.456 1.232 2.144 5.776 8.352 15.408 13.856 26.336 13.856h448c5.424 0 10.752 0.448 16 1.104 63.12 7.888 112 61.632 112 126.896 0 70.688-57.312 128-128 128zM640 448h-128l-48-400h-64l-48 400h-128l-48-400h-64v-48h640v48h-64z" />
<glyph unicode="&#xe985;" glyph-name="stacked-coin" d="M512 896c-247.424 0-448-93.12-448-208v-128c0-114.88 200.576-208 448-208s448 93.12 448 208v128c0 114.88-200.576 208-448 208zM548.256 304.688c-0.896-0.032-1.808-0.064-2.704-0.096-11.104-0.352-22.256-0.592-33.552-0.592s-22.448 0.24-33.552 0.592c-0.896 0.032-1.808 0.064-2.704 0.096-198.288 6.88-361.584 69.584-411.744 153.136v-73.824c0-114.88 200.576-208 448-208s448 93.12 448 208v73.824c-50.16-83.552-213.456-146.256-411.744-153.136zM548.256 128.688c-0.896-0.032-1.808-0.064-2.704-0.096-11.104-0.352-22.256-0.592-33.552-0.592s-22.448 0.24-33.552 0.592c-0.896 0.032-1.808 0.064-2.704 0.096-198.288 6.88-361.584 69.584-411.744 153.136v-73.824c0-114.88 200.576-208 448-208s448 93.12 448 208v73.824c-50.16-83.552-213.456-146.256-411.744-153.136z" />
<glyph unicode="&#xe986;" glyph-name="strategy" d="M720 384l-48-48-48 48-32-32 48-48-48-48 32-32 48 48 48-48 32 32-48 48 48 48zM352 480l-48 48 48 48-32 32-48-48-48 48-32-32 48-48-48-48 32-32 48 48 48-48zM505.728 704l-24-41.568 104.16-60.128c-96.352-46.304-170.336-131.664-201.584-235.52v0c-54.416-7.664-96.304-54.272-96.304-110.784 0-61.856 50.144-112 112-112s112 50.144 112 112c0 51.472-34.768 94.72-82.048 107.824 0 0 0 0 0 0 26.656 79.632 81.904 146 153.664 187.072l-49.168-85.168 41.568-24 95.984 166.272-166.272 96zM464 256c0-35.344-28.656-64-64-64s-64 28.656-64 64c0 35.344 28.656 64 64 64s64-28.656 64-64zM960 640c0 61.856-50.144 112-112 112-13.552 0-26.48-2.528-38.512-6.944-78.736 83.056-190.016 134.944-313.488 134.944-238.592 0-432-193.408-432-432s193.408-432 432-432 432 193.408 432 432c0 35.456-4.368 69.872-12.416 102.832 26.944 20.464 44.416 52.736 44.416 89.168zM864 448c0-203.232-164.752-368-368-368s-368 164.768-368 368c0 203.248 164.752 368 368 368 102.528 0 195.216-41.968 261.952-109.6-13.728-18.592-21.952-41.504-21.952-66.4 0-61.856 50.144-112 112-112 2.4 0 4.736 0.208 7.088 0.352 5.776-25.872 8.912-52.736 8.912-80.352zM848 576c-2.464 0-4.8 0.448-7.2 0.72-31.904 3.616-56.8 30.4-56.8 63.28 0 10.192 2.608 19.696 6.832 28.24 9.92 20.016 29.872 33.968 53.376 35.376 1.28 0.080 2.496 0.384 3.792 0.384 35.344 0 64-28.656 64-64 0-14.144-4.736-27.088-12.496-37.68-11.648-15.888-30.304-26.32-51.504-26.32z" />
<glyph unicode="&#xe987;" glyph-name="sun" d="M566.16 763.072l-54.16 148.928-54.16-148.928c17.648 3.024 35.664 4.928 54.16 4.928s36.512-1.904 54.16-4.928zM457.84 132.928l54.16-148.928 54.16 148.928c-17.648-3.024-35.664-4.928-54.16-4.928s-36.512 1.904-54.16 4.928zM976 448l-148.928 54.16c3.024-17.648 4.928-35.664 4.928-54.16s-1.904-36.512-4.928-54.16l148.928 54.16zM192 448c0 18.496 1.904 36.512 4.928 54.16l-148.928-54.16 148.928-54.16c-3.024 17.648-4.928 35.664-4.928 54.16zM401.36 747.952l-121.36 101.888 27.504-155.76c27.68 23.024 59.44 41.168 93.856 53.872zM622.64 148.048l121.36-101.888-27.52 155.76c-27.68-23.024-59.424-41.168-93.84-53.872zM913.84 680l-155.76-27.504c23.024-27.68 41.168-59.44 53.872-93.84l101.888 121.344zM110.16 216l155.76 27.52c-23.024 27.68-41.168 59.44-53.872 93.84l-101.888-121.36zM265.92 652.496l-155.76 27.504 101.888-121.36c12.704 34.416 30.848 66.176 53.872 93.856zM758.080 243.52l155.76-27.52-101.888 121.36c-12.704-34.416-30.848-66.16-53.872-93.84zM744 849.84l-121.36-101.888c34.416-12.704 66.16-30.848 93.84-53.872l27.52 155.76zM280 46.16l121.36 101.888c-34.4 12.704-66.16 30.848-93.84 53.872l-27.52-155.76zM784 448c0-150.221-121.779-272-272-272s-272 121.779-272 272c0 150.221 121.779 272 272 272s272-121.779 272-272z" />
<glyph unicode="&#xe988;" glyph-name="system-network" d="M512 896c-247.424 0-448-200.576-448-448s200.576-448 448-448 448 200.576 448 448c0 247.424-200.576 448-448 448zM894.576 416.16c-21.264 19.968-43.472 38.896-66.24 57.184 1.408 4.72 2.336 9.568 2.848 14.608 20.24 4.416 40.592 8.496 61.264 11.664 2.272-16.912 3.552-34.112 3.552-51.616 0-10.736-0.56-21.328-1.424-31.84v0zM323.296 221.648c8.672-5.856 18.56-10 29.2-12.080 7.152-41.648 16.528-82.528 28.144-122.496-44.592 16.24-85.264 40.56-120.4 71.12 20 22.144 41.264 43.088 63.056 63.456zM410.832 355.376c-7.92 5.040-16.704 8.832-26.192 10.848-0.384 11.216-0.64 22.464-0.64 33.776 0 66.4 6.544 131.216 18.16 194.256 18.224 4.256 33.888 14.768 44.96 29.12 80.976-25.232 157.744-59.856 229.216-102.528-2.592-7.856-4.336-16.112-4.336-24.848 0-1.344 0.336-2.592 0.4-3.92-93.664-34.112-181.504-80.224-261.568-136.704zM883.136 546.688c-20.816-3.232-41.392-7.104-61.792-11.504-13.728 24.256-39.472 40.816-69.344 40.816-17.92 0-34.288-6.096-47.632-16.048-75.008 45.136-155.616 81.824-240.72 108.528 0.048 1.184 0.352 2.32 0.352 3.52 0 23.872-10.672 45.056-27.248 59.728 10.912 33.536 23.264 66.4 37.296 98.4v0c12.496 1.216 25.136 1.872 37.952 1.872 177.952 0 327.584-121.072 371.136-285.312zM417.856 820.336c-9.2-22.704-17.616-45.792-25.344-69.184-2.832 0.288-5.6 0.848-8.512 0.848-32.464 0-60.288-19.424-72.832-47.232-24.832 4.144-49.92 7.52-75.296 9.952 48.912 50.624 111.552 87.856 181.984 105.616zM128 448c0 82.496 26.096 158.864 70.384 221.44 36.272-2.352 71.968-6.704 107.152-12.576 5.152-26.864 23.696-48.88 48.464-58.928-11.568-64.272-18-130.32-18-197.936 0-12.832 0.464-25.552 0.944-38.256-28.752-12.128-48.944-40.576-48.944-73.744 0-9.92 2.032-19.328 5.344-28.112-23.376-21.744-45.952-44.336-67.392-68-60.88 67.968-97.952 157.696-97.952 256.112zM512 64c-26.224 0-51.824 2.656-76.56 7.664v0c-14.928 46.448-26.544 94.336-35.072 143.296 28.016 12.432 47.632 40.4 47.632 73.040 0 10.704-2.176 20.88-6 30.224 75.808 53.104 158.768 96.544 247.2 128.768 14.64-18.736 37.184-30.992 62.8-30.992 18.784 0 35.824 6.736 49.472 17.568 29.264-23.568 57.392-48.464 83.952-74.992-40.304-168.928-192.144-294.576-373.424-294.576z" />
<glyph unicode="&#xe989;" glyph-name="tablet" d="M768 896h-512c-44.176 0-80-35.824-80-80v-736c0-44.176 35.824-80 80-80h512c44.176 0 80 35.824 80 80v736c0 44.176-35.824 80-80 80zM512 32c-17.68 0-32 14.32-32 32s14.32 32 32 32c17.68 0 32-14.32 32-32s-14.32-32-32-32zM784 128h-544v688h544v-688z" />
<glyph unicode="&#xe98a;" glyph-name="tablet-dark" d="M768 896h-512c-44.176 0-80-35.824-80-80v-736c0-44.176 32-80 80-80h512c48 0 80 32 80 80v736c0 48-32 80-80 80zM768 48h-512c-16 0-32 14.32-32 32v736c0 17.68 14.32 32 32 32h512c16 0 32-16 32-32v-736c0-16-16-32-32-32zM256 816h512v-672h-512v672zM544 96c0-17.673-14.327-32-32-32s-32 14.327-32 32c0 17.673 14.327 32 32 32s32-14.327 32-32z" />
<glyph unicode="&#xe98b;" glyph-name="talk" d="M912 800h-800c-26.512 0-48-21.488-48-48v-496c0-32 21.488-48 48-48h528l160-160v160h112c26.512 0 48 21.488 48 48v496c0 26.512-21.488 48-48 48zM752 256v-96l-96 96h-544v496h800v-496h-160z" />
<glyph unicode="&#xe98c;" glyph-name="talk-write" d="M288 672h448v-80h-448v80zM288 416h304v-80h-304v80zM288 544h448v-80h-448v80zM912 800h-800c-26.512 0-48-21.488-48-48v-496c0-32 21.488-48 48-48h528l160-160v160h112c26.512 0 48 21.488 48 48v496c0 26.512-21.488 48-48 48zM752 256v-96l-96 96h-544v496h800v-496h-160z" />
<glyph unicode="&#xe98d;" glyph-name="talk-write-iverted" d="M912 800h-800c-26.512 0-48-21.488-48-48v-496c0-26.512 21.488-48 48-48h528l160-160v160h112c26.512 0 48 21.488 48 48v496c0 26.512-21.488 48-48 48zM592 336h-304v80h304v-80zM736 464h-448v80h448v-80zM736 592h-448v80h448v-80z" />
<glyph unicode="&#xe98e;" glyph-name="testtube-beaker" d="M320 672h32v64h-288v-64h32v-560c0-61.856 50.144-112 112-112s112 50.144 112 112v560zM288 400h-128v-288h-32v560h160v-272zM951.696 96l-279.696 472.368v263.632h32v64h-288v-64h32v-263.696l-96-168.304v-288c0-11.008-1.344-21.696-3.696-32-1.248-5.472-2.832-10.784-4.672-16-8.976-25.328-24.72-47.44-45.216-64l597.584 0.464c16 0.976 20.624 3.6 28.416 8.112 20.512 11.84 33.632 33.328 33.664 55.424 0.016 10.88-0.56 21.904-6.384 32zM868.096 112l-170.544 288h-313.552l96 160v272h160v-272l265.28-448h-37.184z" />
<glyph unicode="&#xe98f;" glyph-name="testtube" d="M640 896h-288v-64h32v-704c0-70.688 57.312-128 128-128s130.624 57.36 128 128v704h32v64h-32zM608 352h-160v-224h-32v704h192v-480z" />
<glyph unicode="&#xe990;" glyph-name="testtube-full" d="M352 896v-64h32v-704c0-70.688 57.312-128 128-128s130.624 57.36 128 128v704h32v64h-320zM608 656h-160v-528h-32v704h192v-176z" />
<glyph unicode="&#xe991;" glyph-name="testtubes" d="M416 896h-288v-64h32v-704c0-70.688 57.312-128 128-128s130.624 57.36 128 128v704h32v64h-32zM384 352h-160v-224h-32v704h192v-480zM592 896v-64h32v-704c0-70.688 57.312-128 128-128s130.624 57.36 128 128v704h32v64h-320zM848 656h-160v-528h-32v704h192v-176z" />
<glyph unicode="&#xe992;" glyph-name="tools" d="M853.024 288c-37.968 37.968-93.856 47.024-140.432 27.296l-144.016 144.016 174.304 174.288 56.56 11.312 79.2 124.448-45.248 45.248-124.448-79.2-11.344-56.544-174.288-174.304-144.016 144.016c19.728 46.592 10.672 102.464-27.296 140.432-28.56 28.576-67.28 40.736-104.528 36.656l56.528-57.664v-112h-112l-57.664 56.528c-4.096-37.248 8.080-75.968 36.64-104.528 37.968-37.968 93.84-47.024 140.432-27.296l121.392-121.392-237.584-237.584c-24.992-24.992-24.992-65.52 0-90.512s65.52-24.992 90.512 0l237.584 237.584 121.392-121.392c-19.728-46.592-10.672-102.464 27.296-140.432 28.56-28.56 67.264-40.736 104.528-36.656l-56.528 57.68v112h112l57.664-56.528c4.096 37.264-8.080 75.968-36.64 104.528z" />
<glyph unicode="&#xe993;" glyph-name="tree" d="M462.816 291.024c-6.4-1.264-12.864-2-19.344-2.464l-27.472-288.56h192l-24.416 256.272c-42.672 1.392-84.016 13.216-120.768 34.752zM800 752c-12.448 0-24.464-1.744-36-4.72-11.76 39.728-48.464 68.72-92 68.72-13.616 0-26.56-2.88-38.304-8-29.504-12.864-51.2-40.112-56.4-72.88-0.768-4.928-1.296-9.968-1.296-15.12h-32c0 3.6 0.24 7.152 0.544 10.672 3.696 44.688 30.304 82.832 68.112 102.672-37.776 38.624-90.384 62.656-148.656 62.656-104.208 0-190.256-76.704-205.392-176.672-90.928-6.864-162.608-82.64-162.608-175.328 0-97.2 78.8-176 176-176 7.056 0 13.984 0.528 20.816 1.344-32.128 56.784-26.88 128.944 15.904 180.592 3.184 3.84 6.528 7.6 10.128 11.2l22.624-22.624c-3.472-3.472-6.672-7.2-9.728-11.056-17.312-21.84-27.744-49.408-27.744-79.456 0-26.496 8.048-51.12 21.84-71.536 23.008-34.064 61.968-56.464 106.16-56.464 12.624 0 24.8 1.904 36.32 5.312 11.488-7.632 23.68-14.288 36.528-19.728 26.8-11.328 56.24-17.584 87.152-17.584 107.424 0 197.072 75.648 218.864 176.544 74.432 5.568 133.136 67.584 133.136 143.456 0 79.536-64.464 144-144 144z" />
<glyph unicode="&#xe994;" glyph-name="truck" d="M822.528 320h-502.528v288h-176v-0.368l-79.856-175.6 0.080-0.032h-0.224v-192h65.28c7.776 54.256 54.32 96 110.72 96 44.656 0 83.088-26.192 101.072-64h58.928v-48h368c0 40.816 21.904 76.432 54.528 96zM256 432h-156.88l65.488 144h91.392v-144zM352 736h608v-400h-608v400zM240 304c-44.176 0-80-35.824-80-80s35.824-80 80-80 80 35.824 80 80-35.824 80-80 80zM240 192c-17.664 0-32 14.32-32 32s14.336 32 32 32c17.68 0 32-14.32 32-32s-14.32-32-32-32zM880 304c-44.176 0-80-35.824-80-80s35.824-80 80-80 80 35.824 80 80-35.824 80-80 80zM880 192c-17.664 0-32 14.32-32 32s14.336 32 32 32c17.68 0 32-14.32 32-32s-14.32-32-32-32z" />
<glyph unicode="&#xe995;" glyph-name="unlock" d="M320 608v160c0 35.344 28.656 64 64 64h256c35.344 0 64-28.656 64-64v-64h64v64c0 70.688-57.312 128-128 128h-256c-70.688 0-128-57.312-128-128v-160h-80v-464c0-79.536 64.464-144 144-144h384c79.536 0 144 64.464 144 144v464h-528zM544 294.752v-134.752h-64v134.752c-28.224 12.352-48 40.464-48 73.248 0 44.176 35.824 80 80 80s80-35.824 80-80c0-32.784-19.776-60.896-48-73.248z" />
<glyph unicode="&#xe996;" glyph-name="utensil" d="M832 704c0 70.688-42.976 128-96 128s-96-57.312-96-128c0-55.712 26.736-102.976 64-120.56v-535.44h64v535.44c37.264 17.584 64 64.848 64 120.56zM512 656h-32v176h-32v-176h-32v176h-32v-176l48-80v-528h64v528l48 80v176h-32zM192 768v-320h32v-400h64v784h-32c-35.344 0-64-28.656-64-64z" />
<glyph unicode="&#xe997;" glyph-name="vehicles" d="M439.808 395.312l-24.896 92.912-0.096-0.032c-3.648 13.68-16 23.808-30.816 23.808h-64v32h-96v-32h-64c-14.8 0-27.136-10.096-30.784-23.744l-0.112 0.032-24.912-92.976c-23.536-9.456-40.192-32.4-40.192-59.312v-96h32v-48c0-17.664 14.32-32 32-32s32 14.336 32 32v48h224v-48c0-17.664 14.336-32 32-32 17.68 0 32 14.336 32 32v48h32v96c0 26.912-16.656 49.856-40.192 59.312zM128 304c-17.68 0-32 14.336-32 32 0 17.68 14.32 32 32 32s32-14.32 32-32c0-17.664-14.32-32-32-32zM138.56 400l21.44 80 224-0.048 21.424-79.952h-266.864zM416 304c-17.664 0-32 14.336-32 32 0 17.68 14.336 32 32 32 17.68 0 32-14.32 32-32 0-17.664-14.32-32-32-32zM896 720h-320c-35.344 0-64-28.656-64-64v-416h32v-48c0-17.664 14.336-32 32-32 17.68 0 32 14.336 32 32v48h256v-48c0-17.664 14.336-32 32-32 17.68 0 32 14.336 32 32v48h32v416c0 35.344-28.656 64-64 64zM624 672h224v-32h-224v32zM576 304c-17.664 0-32 14.336-32 32 0 17.68 14.336 32 32 32 17.68 0 32-14.32 32-32 0-17.664-14.32-32-32-32zM896 304c-17.664 0-32 14.336-32 32 0 17.68 14.336 32 32 32 17.68 0 32-14.32 32-32 0-17.664-14.32-32-32-32zM928 448h-384v176h384v-176z" />
<glyph unicode="&#xe998;" glyph-name="waiting" d="M419.216 736c0-35.346-28.654-64-64-64s-64 28.654-64 64c0 35.346 28.654 64 64 64s64-28.654 64-64zM407.040 608.544c-9.152 34.144-44.24 54.4-78.384 45.248s-54.4-44.24-45.248-78.384l60.176-224.544c7.168-26.768 30.304-44.832 56.416-47.008v0c3.952-0.32 192 0.144 192 0.144v-240h51.216l30.384 320-209.68 12.256-56.88 212.288zM253.824 551.136l-61.824-16.576 80-310.56h288v48h-231.392zM752 896c-88.368 0-160-71.632-160-160s71.632-160 160-160 160 71.632 160 160c0 88.368-71.632 160-160 160zM752 608c-70.688 0-128 57.312-128 128s57.312 128 128 128 128-57.312 128-128c0-70.688-57.312-128-128-128zM768 848h-32v-160h96v32h-64z" />
<glyph unicode="&#xe999;" glyph-name="waterdrop" d="M512 896c0 0-304-352-304-592 0-167.888 136.112-304 304-304s304 136.112 304 304c0 240-304 592-304 592zM390.352 83.904c-74.112 49.168-118.352 131.456-118.352 220.096 0 44.176 11.808 96.56 35.088 155.712l59.552-23.44c-20.32-51.648-30.64-96.16-30.64-132.272 0-67.136 33.552-129.488 89.744-166.784l-35.392-53.312z" />
<glyph unicode="&#xe99a;" glyph-name="wave" d="M576 832c0-35.346-28.654-64-64-64s-64 28.654-64 64c0 35.346 28.654 64 64 64s64-28.654 64-64zM640 448l144 128-160 160h-192l-240 160-32-32 240-208v-656h48l64 400 64-400h48v656l80-80-64-80z" />
<glyph unicode="&#xe99b;" glyph-name="weather" d="M610.976 702.368c20.096 29.936 54.256 49.632 93.024 49.632 61.856 0 112-50.144 112-112 0-18.432-4.528-35.76-12.416-51.088 27.184-4.352 52.72-13.488 75.712-26.688 7.136 16.096 12.192 33.312 14.672 51.376l66.032 26.4-66.032 26.416c-2.208 15.984-6.272 31.36-12.144 45.824l43.872 55.76-70.352-10.144c-9.744 12.496-20.992 23.728-33.488 33.488l10.144 70.352-55.76-43.872c-14.48 5.888-29.84 9.952-45.824 12.144l-26.416 66.032-26.416-66.032c-15.984-2.208-31.36-6.256-45.824-12.144l-55.76 43.872 10.128-70.352c-12.496-9.744-23.728-20.976-33.488-33.488l-70.336 10.144 26.384-33.536c36.784-3.856 71.36-15.072 102.288-32.096zM768 560c-22.384 0-43.776-4.032-63.76-11.072-34.32 90.576-121.648 155.072-224.24 155.072-132.544 0-240-107.456-240-240 0-1.264-20.912 0-32 0-79.536 0-144-64.464-144-144s64.464-144 144-144v48c-53.024 0-96 42.976-96 96s42.976 96 96 96h86.288c-1.888 7.312-3.328 14.784-4.4 22.384-1.184 8.384-1.888 16.896-1.888 25.616 0 106.032 85.968 192 192 192 83.792 0 154.816-53.744 180.976-128.592 5.824-16.672 9.488-34.368 10.496-52.784 13.104 11.872 28.4 21.344 45.184 27.808 15.936 6.144 33.216 9.568 51.344 9.568 79.536 0 144-64.464 144-144s-64.464-144-144-144v-48c106.032 0 192 85.968 192 192s-85.968 192-192 192zM271.36 122.176c18.736-18.752 44.784-23.104 67.888 0s33.936 101.824 33.936 101.824-79.664-11.792-101.824-33.936c-22.144-22.16-18.736-49.136 0-67.888zM618.176 122.176c18.752-18.752 44.784-23.104 67.888 0 23.088 23.104 33.936 101.824 33.936 101.824s-79.664-11.792-101.824-33.936c-22.16-22.16-18.736-49.136 0-67.888zM431.36 15.728c18.736-18.752 44.784-23.104 67.888 0s33.936 101.824 33.936 101.824-79.664-11.792-101.824-33.936c-22.144-22.16-18.736-49.136 0-67.888z" />
<glyph unicode="&#xe99c;" glyph-name="wheat" d="M512 752c29.984 0 54.288 24.304 54.288 54.288 0 42.848-54.288 105.712-54.288 105.712s-54.288-62.864-54.288-105.712c0-29.984 24.304-54.288 54.288-54.288zM542.864 654.864c21.2-21.2 55.568-21.2 76.768 0 30.304 30.304 36.368 113.136 36.368 113.136s-82.832-6.064-113.136-36.368c-21.2-21.2-21.2-55.568 0-76.768zM481.136 654.864c21.2 21.2 21.2 55.568 0 76.768-30.304 30.304-113.136 36.368-113.136 36.368s6.064-82.832 36.368-113.136c21.2-21.2 55.568-21.2 76.768 0zM542.864 510.864c21.2-21.2 55.568-21.2 76.768 0 30.304 30.304 36.368 113.136 36.368 113.136s-82.832-6.064-113.136-36.368c-21.2-21.2-21.2-55.568 0-76.768zM481.136 510.864c21.2 21.2 21.2 55.568 0 76.768-30.304 30.304-113.136 36.368-113.136 36.368s6.064-82.832 36.368-113.136c21.2-21.2 55.568-21.2 76.768 0zM542.864 366.864c21.2-21.2 55.568-21.2 76.768 0 30.304 30.304 36.368 113.136 36.368 113.136s-82.832-6.064-113.136-36.368c-21.2-21.2-21.2-55.568 0-76.768zM481.136 366.864c21.2 21.2 21.2 55.568 0 76.768-30.304 30.304-113.136 36.368-113.136 36.368s6.064-82.832 36.368-113.136c21.2-21.2 55.568-21.2 76.768 0zM542.864 222.864c21.2-21.2 55.568-21.2 76.768 0 30.304 30.304 36.368 113.136 36.368 113.136s-82.832-6.064-113.136-36.368c-21.2-21.2-21.2-55.568 0-76.768zM481.136 299.632c-30.304 30.304-113.136 36.368-113.136 36.368s6.064-82.832 36.368-113.136c21.2-21.2 55.568-21.2 76.768 0s21.2 55.568 0 76.768zM496 208h32v-208h-32v208z" />
<glyph unicode="&#xe99d;" glyph-name="wheelchair" d="M496 768c0-35.346-28.654-64-64-64s-64 28.654-64 64c0 35.346 28.654 64 64 64s64-28.654 64-64zM736 416l-195.296 12.256-18.144 67.744h133.44v48l-150.336 15.040-21.84 81.52c-9.152 34.144-44.24 54.4-78.384 45.248s-54.4-44.24-45.248-78.384l60.176-224.544c7.168-26.768 30.304-44.832 56.416-47.008l211.216 0.128 80-240 48 16-80 304zM432 128c-106.032 0-192 85.968-192 192 0 79.328 48.112 147.392 116.736 176.656l-12.48 46.56c-89.088-35.056-152.256-121.664-152.256-223.216 0-132.544 107.456-240 240-240 127.152 0 230.928 98.944 239.2 224h-48c-8.16-98.528-90.56-176-191.2-176z" />
<glyph unicode="&#xe99e;" glyph-name="windmill" d="M528 448h-32l-32-400h-48v-48h192v48h-48zM659.504 511.008l-101.2 12.96c-4.304 16.688-17.28 29.744-33.904 34.208l91.488 340.096-15.808 4.24-151.808-257.488 32.704-96.688c-10.304-8.8-16.976-21.728-16.976-36.336 0-4.88 0.944-9.504 2.304-13.952l-336.928-102.672 4.784-15.664 298.8 7.728 64.656 78.992c4.592-1.44 9.344-2.432 14.384-2.432 14.448 0 27.264 6.528 36.064 16.624l265.632-231.28 10.736 12.352-164.928 249.312zM512 496c-8.832 0-16 7.168-16 16s7.168 16 16 16 16-7.168 16-16c0-8.832-7.168-16-16-16z" />
<glyph unicode="&#xe99f;" glyph-name="world-1" d="M512 896c-247.424 0-448-200.576-448-448s200.576-448 448-448 448 200.576 448 448c0 247.424-200.576 448-448 448zM512 64c-212.080 0-384 171.92-384 384 0 83.616 26.816 160.944 72.192 224h39.808v-64l48-96h32l32-80 80-64h48v-272h48v32l144 112v112l-96 48h-128l-48 48v48h48v-32h32v48l64 64h48v48h-16v112h-64v-48l-32-32h-32v48l32 32v16l-48 48v23.6c25.808 5.472 52.56 8.4 80 8.4 33.152 0 65.312-4.208 96-12.096v-67.904l32-32v-48h32l77.568 77.568c89.136-70.32 146.432-179.216 146.432-301.568 0-212.080-171.92-384-384-384z" />
<glyph unicode="&#xe9a0;" glyph-name="world-2" d="M512 896c-247.424 0-448-200.576-448-448s200.576-448 448-448 448 200.576 448 448c0 247.424-200.576 448-448 448zM512 64c-212.080 0-384 171.92-384 384 0 63.456 15.488 123.264 42.736 176h101.264v123.664c65.744 52.72 149.168 84.336 240 84.336 38.784 0 76.208-5.808 111.504-16.496l-31.504-31.504 16-16-32-32-48 48-80-80v-32h32v16l32 32 16-16-16-16v-48h-32v16h-32l-64-64h-48v-64h64v16h80v-32h64v16h32v-48h-160v32h-80v-16h-32v-96l80-80h32v-48l64-64v-112h32l80 80v112l96 96h-32l-64 80 16 16 64-80 48 48v32h-32l-32 32h112v-64h48l72.992 72.992c4.544-23.648 7.008-48.032 7.008-72.992 0-212.080-171.92-384-384-384zM416 688h-32v-64l32 32z" />
<glyph unicode="&#xe9a1;" glyph-name="world-3" d="M512 896c-247.424 0-448-200.576-448-448s200.576-448 448-448 448 200.576 448 448c0 247.424-200.576 448-448 448zM512 832c97.344 0 186.176-36.288 253.856-96h-173.856l-48 48h-217.92c55.104 30.544 118.464 48 185.92 48zM512 64c-191.872 0-350.848 140.736-379.408 324.592l59.408 59.408h32v-80h48l48 80h32v-48h32v-80l64-64 32 32-64 64 32 32v80h64l128 128v96h64l-16-16v-32l48 48h32v46.144c78.544-70.304 128-172.432 128-286.144 0-212.080-171.92-384-384-384zM591.999 512.001l48.004 48.004 15.997-15.997-48.004-48.004-15.997 15.997zM512 304v32h-64l32-32zM640 240h-48v16h-48l-32-32h-48v-64l32-32h112l16-32 64 64v80l-48 48zM624 320l32-32 16 16-48 48-32-32 16-16zM736 176l-16-16v-16l32 32v32h-16z" />
</font>
</defs>
</svg>
